<svg xmlns="http://www.w3.org/2000/svg" viewBox="0 0 500 500"><g id="freepik--Floor--inject-42"><g id="freepik--floor--inject-42"><g id="freepik--Grass--inject-42"><ellipse id="freepik--grass--inject-42" cx="250" cy="348.82" rx="231.53" ry="133.67" style="fill:#f0f0f0"></ellipse></g><path d="M285.29,264.92c18.92,4.14-6.2,8.39,6,14.87,8.11,4.3,18.1,2.4,26.62,6.1-2.24.62-13.76,1.05-14.14,4.59-.5,4.6,10.49,6.85,13.56,7.62,7.61,1.91,17.4,3.74,25.18,2.54,6.73-1,10.77-6.31,4.14-11.39,10-.36,21.6,5.78,31.25,8.48.43,3.64-3.34,2.81-4,5.38-1.28,4.89,3.75,6.74,7.3,8.56s19.54,7.57,18.89-.79c5.89,5.78,39.34,17.47,42.9,8.59,2.9-7.24-12.36-12.19-13.18-18.9,8.44-2.89,15.4,2,22.47,6.11a72.18,72.18,0,0,0,21.4,7.61c-10.14-22-30.13-42.76-60-60-71.79-41.45-179-50-265.39-25.61a16,16,0,0,0,1.71,2.2c7.23,7.8,21.09,13.14,30.62,17.22,21.33,9.13,48.51,9.61,71.47,11.89A291.79,291.79,0,0,1,285.29,264.92Zm-44.76.44c-2.81.14-7.92.1-9.93,2.62-7.22,9.07,16,13,20.72,13.54,4.2.45,18.93,2.71,19.67-3.51C272.07,268.89,246.63,265.06,240.53,265.36Zm213.61,86.71c6.52-.21,8.41-5,5.4-10.74-4-7.77-14.71-9.08-22.32-10.68-7.91-1.67-17-2.25-24.66-4.7-5.07-1.64-9.28-6.67-13.88-3.45-2.15,1.51-2.47,4.34-5.42,5.37-3.54,1.23-6.5-.39-9.48-2.14-5.87-3.45-10.76-8.26-16.36-12-12.63-8.33-24.71-1.26-38.11-4.29-6.82-1.54-48.42-21.2-52.51-10.11-2.17,5.87,23.29,12.13,27.58,12.75,2.32.33,7.68.11,9.44,1.88,1.59,1.57.67,5.58,1.69,7.54,2.86,5.48,13.2,7.6,18.93,7.71,5.31.11,8.85-7.06,12.29-6.62,2.63.34,1.85,2.54,2.64,4.44,1.84,4.42,1.92,7,6.51,9.53,7.86,4.26,16.8,8.09,25.65,9.47,9.88,1.54,25.35,9,35.06,5.89,4.49-1.41,2.62-4.61,5.35-7s7.11-1.81,10.33-.89C439.93,346.23,445.54,352.34,454.14,352.07Zm.14,10.64c-8.68-3.14-19.28-3.78-21.89,1.21-5.54,10.62,36.07,25,34,8.41C465.89,368.6,460.59,365,454.28,362.71Z" style="fill:#ebebeb"></path></g></g><g id="freepik--Plants--inject-42"><g id="freepik--plants--inject-42"><path d="M45.76,219.56c2.16,3.78,5.39,9,8.43,14.63,4.54,8.44,8.64,17.82,8,24.76l0,.7h0l.53,10.65.07,1.44,2.52-1.45,6.19-3.58A91.45,91.45,0,0,0,71.71,232c-2.43-13.93-12.18-29.22-20.4-30C43.66,201.11,40.38,210.12,45.76,219.56Z" style="fill:#e0e0e0"></path><path d="M68.14,266.33a.5.5,0,0,1-.29-.52c3.21-25.78-7.4-49.55-18.2-58.16a.49.49,0,0,1,.62-.77c11,8.75,21.81,32.92,18.55,59.05a.49.49,0,0,1-.55.43Z" style="fill:#fff"></path><path d="M36.32,235.88c.85,5,9.92,10.87,15.92,19,5.41,7.31,7.78,14.72,7.58,18.66h0l3-1.74,2.52-1.45C66.75,252,60,241.36,54.19,234.19a18.28,18.28,0,0,0-6.38-4.75C39.84,226.26,35.3,229.89,36.32,235.88Z" style="fill:#f0f0f0"></path><path d="M62.66,270.27a.47.47,0,0,1-.29-.44c-.31-20.95-12.32-32.37-18.62-35.48a.49.49,0,1,1,.43-.88c7,3.44,18.86,15,19.17,36.34a.48.48,0,0,1-.48.5A.49.49,0,0,1,62.66,270.27Z" style="fill:#fff"></path></g><g id="freepik--plants--inject-42"><path d="M403.56,261.69l8.73,5c.49-25.6,17.11-44.35,25.12-54.26,8.14-10.1-3.12-16.14-12.61-11.71s-17.19,15.79-20.37,30.55C401.71,243.92,403.1,257.9,403.56,261.69Z" style="fill:#e0e0e0"></path><path d="M407.27,260.91h-.12a.56.56,0,0,1-.54-.58c.89-32.23,11.62-48.36,24-56.57a.56.56,0,0,1,.78.16.55.55,0,0,1-.16.77c-12.24,8.1-22.65,23.91-23.53,55.68A.55.55,0,0,1,407.27,260.91Z" style="fill:#fff"></path><path d="M450.43,232.49c-.19,1.79-1.63,3.15-3,4.3s-2.87,2.4-3.25,4.15c-.75,3.54,3.44,6.8,2.53,10.3a5.6,5.6,0,0,1-2.95,3.3c-1.11.6-2.31,1-3.47,1.48a15.35,15.35,0,0,1-1.75.42,8.16,8.16,0,0,0-4.75,2.13c-1.93,2.1-1.69,5.32-2.37,8.09-.83,3.32-2.8,5.26-7.32,6.84l-15.45-8.76c-3.86-3.93-5.22-10.64-1.67-15.21,2.13-2.74,6.12-3.08,8.13-5.82,1.8-2.46.76-6,1.87-8.85s4-3.82,6.82-4.3,5.72.66,8.43-.33,5.22-2.58,8-3.29a9.37,9.37,0,0,1,8.09,1.36A5,5,0,0,1,450.43,232.49Z" style="fill:#f0f0f0"></path><path d="M421.61,246.45a.3.3,0,0,1,.12-.17c7.26-10.3,18.65-15.19,22.5-16.05a.4.4,0,0,1,.48.3.4.4,0,0,1-.3.48c-3.65.82-14.23,5.34-21.35,14.79a22.22,22.22,0,0,1,17.73,1.54.4.4,0,0,1,.12.56.38.38,0,0,1-.32.18.46.46,0,0,1-.23-.06,21.49,21.49,0,0,0-18.11-1.1,33.75,33.75,0,0,0-6.05,20.79.4.4,0,0,1-.36.41h0a.39.39,0,0,1-.41-.39A34.4,34.4,0,0,1,421.61,246.45Z" style="fill:#fff"></path></g></g><g id="freepik--Sun--inject-42"><circle id="freepik--sun--inject-42" cx="77.59" cy="47.72" r="17.59" style="fill:#ffbda7"></circle></g><g id="freepik--Clouds--inject-42"><path id="freepik--Cloud--inject-42" d="M313,50c1.35.89,3.28.79,4.95.54,2-.29,4.18-.61,5.74.61a17.41,17.41,0,0,1,1.94,2.32c1.82,2.08,5.22.52,6.75,3.38.22.41.24,1.75.79,1.88s1.67-.76,2.24-.85a18.73,18.73,0,0,1,5.59.19,6.43,6.43,0,0,1,4.3,2.5c.5.69,1,1.54,1.8,1.73a2.82,2.82,0,0,0,1.43-.2,16.91,16.91,0,0,1,5-1.21,4.55,4.55,0,0,1,4.28,2.2c.1.21.21.47.45.52s.44-.14.62-.3a5.17,5.17,0,0,1,4.55-1.16,2.46,2.46,0,0,1,1.37.74c.48.58.49,1.42,1,2,.83,1,2.46.69,3.74.34,1.7-.46,3.69-.78,5.11.25.38.28.7.64,1.1.89,1.08.69,2.5.47,3.79.35.85-.08,10.8.23,10.66,1.06s-2.64.68-3.2.73c-.83.07-1.64.25-2.48.28a6.86,6.86,0,0,0-2.52.2c-.51.22-.85.66-1.41.84a6.49,6.49,0,0,1-4-.28c-1.48-.49-3.08-1.33-4.69-1.26a7.37,7.37,0,0,0-2.17.79,7.65,7.65,0,0,1-4.47.09c-.85-.21-2.18-.82-3.09-.58-.53.13-1.08.65-1.62.85a11.43,11.43,0,0,1-2.18.56c-2.65.37-5.26-1.07-7.77-1.69-3.21-.78-5-.08-7.36,1.81a7.68,7.68,0,0,1-7.21,1.15,21.92,21.92,0,0,0-2.17-.82,8.41,8.41,0,0,0-5.58.43A13.52,13.52,0,0,1,325,72.46c-3.77.88-7.4-3.52-11.11-2.4a11,11,0,0,0-2.11,1.06,32.39,32.39,0,0,1-6.42,2.54,3.86,3.86,0,0,1-1.24.25,3.71,3.71,0,0,1-1.65-.57,16.52,16.52,0,0,0-3-1.49,4.08,4.08,0,0,0-3.27.2,7.8,7.8,0,0,1-1.54,1c-1.49.46-2.8-1.23-4.35-1.42s-2.85,1.06-4.39,1-3.16-.92-4.84-1c-3.78-.17-7.59.84-11.34,0a19.3,19.3,0,0,0-4.3-.81c-2.69,0-5.28,1.76-7.92,1.21a.73.73,0,0,1-.29-.11c-.29-.2-.16-.7.14-.89a2,2,0,0,1,1.05-.16,8.61,8.61,0,0,0,3.25-.54c1.09-.39,2.1-1,3.22-1.29,3.46-.86,7.33,1.57,10.55,0a24.27,24.27,0,0,1,2.54-1.4c1.85-.62,3.91.41,5.8,0a6.84,6.84,0,0,0,3.6-2.85,12.47,12.47,0,0,1,3.15-3.43c1.34-.81,3.31-.85,4.27.38a12.57,12.57,0,0,1,1.31-3.59A4.27,4.27,0,0,1,299.16,56a3,3,0,0,0,1.62-.31,2.36,2.36,0,0,0,.6-1.63,7.23,7.23,0,0,1,3.22-5,13.55,13.55,0,0,1,3.79-1.68,3.07,3.07,0,0,1,2.7.53,16.33,16.33,0,0,1,1.25,1.6A3.66,3.66,0,0,0,313,50Z" style="fill:#f0f0f0"></path><path id="freepik--cloud--inject-42" d="M424.12,34.71l.3.16c1.63.75,3.52.12,5.3.14a7.3,7.3,0,0,1,4.71,1.81c.76.69,1.38,1.53,2.12,2.24a8.93,8.93,0,0,0,7.25,2.36,17.55,17.55,0,0,1,2.49-.35c2.1,0,3.93,1.36,5.93,2,4.42,1.35,9.22-1.08,13.76-.24,2.53.47,4.82,1.93,7.38,2.26,1.58.21,3.21-.06,4.76.34,0,.92-3.36,1.15-4.11,1.19a13,13,0,0,1-5.05-.74,29,29,0,0,0-3.07-1.13c-2.58-.6-5.18.37-7.46,1.52a15.42,15.42,0,0,1-3,.81c-1.33.39-2.59,1.05-3.93,1.45a12.65,12.65,0,0,1-7.79.19c-1.5-.54-2.85-1.48-4.4-1.88-2.6-.68-5.35.29-7.72,1.55-1.47.78-3,1.71-4.66,1.49-2.3-.3-3.75-2.67-5.86-3.63-2.8-1.27-6.25-.2-8.89.89a29.74,29.74,0,0,1-4.65,1.61,9.83,9.83,0,0,1-4.88,0,29.12,29.12,0,0,0-3.57-1.16c-1.46-.21-3,.26-4.42.06a11.12,11.12,0,0,1-1.51-.38,10.89,10.89,0,0,0-3.79-.59.4.4,0,0,1-.32-.07.31.31,0,0,1-.08-.29.92.92,0,0,1,.62-.65,2.83,2.83,0,0,1,.92-.1q2.88.06,5.75.31a14.63,14.63,0,0,0,5.07-.69c1.21-.34,2.34-.85,3.56-1.08A4.84,4.84,0,0,0,407.54,42c1-1.29,2.07-2.94,3.86-3.06a2.37,2.37,0,0,0,1-.15c.46-.24.59-.82.74-1.33a9.53,9.53,0,0,1,4.39-5.16,3.63,3.63,0,0,1,4.37.49A14.56,14.56,0,0,0,424.12,34.71Z" style="fill:#f0f0f0"></path></g><g id="freepik--grass--inject-42"><g id="freepik--grass--inject-42"><path d="M386.4,432.05c-2.62,13.56.91,30.78.91,30.78l-2.92-1.67C382.29,442.15,386.4,432.05,386.4,432.05Z" style="fill:#BA68C8"></path><path d="M386.4,432.05c-2.62,13.56.91,30.78.91,30.78l-2.92-1.67C382.29,442.15,386.4,432.05,386.4,432.05Z" style="opacity:0.15"></path><path d="M385.8,461.84l0,.14-1.44-.82c-2.1-19,2-29.11,2-29.11C384.13,438.62,384.31,454.45,385.8,461.84Z" style="opacity:0.15"></path><path d="M387.31,462.83s1.17-12.29,5.78-22.88,10.42-15.35,10.42-15.35-7.12,3.27-12.93,14.66a73.23,73.23,0,0,0-7.1,21.38Z" style="fill:#BA68C8"></path><path d="M385.3,461.68h0l-1.82-1a73.23,73.23,0,0,1,7.1-21.38c5.81-11.39,12.93-14.66,12.93-14.66C396.57,429.09,387.35,443.78,385.3,461.68Z" style="opacity:0.1"></path><path d="M387.31,462.83s2-10.1,14.53-18.55c0,0-11.85,4.6-17.45,16.88Z" style="fill:#BA68C8"></path><path d="M385.8,461.84l0,.1-1.37-.78c5.6-12.28,17.45-16.88,17.45-16.88C396,447.66,388.94,453.41,385.8,461.84Z" style="opacity:0.1"></path></g><g id="freepik--grass--inject-42"><path d="M122.53,299.35c1.09,13.76-4.34,30.49-4.34,30.49l3.09-1.34C125.49,309.84,122.53,299.35,122.53,299.35Z" style="fill:#BA68C8"></path><path d="M122.53,299.35c1.09,13.76-4.34,30.49-4.34,30.49l3.09-1.34C125.49,309.84,122.53,299.35,122.53,299.35Z" style="opacity:0.15"></path><path d="M119.8,329l0,.15,1.53-.66c4.21-18.66,1.25-29.15,1.25-29.15C124.05,306.13,122.1,321.84,119.8,329Z" style="opacity:0.15"></path><path d="M118.19,329.84s.21-12.35-3.19-23.4S106.36,290,106.36,290s6.71,4,11.21,16a73,73,0,0,1,4.67,22Z" style="fill:#BA68C8"></path><path d="M120.32,328.91h0l1.92-.83a73,73,0,0,0-4.67-22c-4.5-12-11.21-16-11.21-16C112.75,295.27,120.28,310.89,120.32,328.91Z" style="opacity:0.1"></path><path d="M118.19,329.84s-.87-10.27-12.37-20.06c0,0,11.26,5.89,15.46,18.72Z" style="fill:#BA68C8"></path><path d="M119.8,329l0,.11,1.45-.62c-4.2-12.83-15.46-18.72-15.46-18.72C111.23,313.79,117.63,320.29,119.8,329Z" style="opacity:0.1"></path></g></g><g id="freepik--Shadow--inject-42"><path id="freepik--shadow--inject-42" d="M367.73,479.62c-92.21-41.87-172.57-88.41-242.46-140-7.22-6-5.32-11.95,1.11-15.66s17.2-3.51,24.06.44L393.38,464.69c6.85,4,7.2,10.17.77,13.88S377.54,483.46,367.73,479.62Z" style="fill:#e0e0e0"></path></g><g id="freepik--Balloons--inject-42"><g id="freepik--balloons--inject-42"><path d="M350,185.65c-1.81-9.37-6.43-17.79-9.79-26.64a44.88,44.88,0,0,1-2.24-7.44,23.31,23.31,0,0,1-.46-3.82,29.65,29.65,0,0,1,.18-3.77c0-.46-.41-.8-.55-.28-1.13,4.48,0,9.47,1.48,13.73,1.54,4.49,3.55,8.81,5.4,13.18,3.66,8.67,7,17.93,5.52,27.48-.76,5-2.74,10.42-1.57,15.5,0,.09.2,1.26.56,2.82,0,.08-.07-2.85-.09-3a18.25,18.25,0,0,1,.34-7.14c.43-2.26,1-4.5,1.39-6.76A37.56,37.56,0,0,0,350,185.65Z" style="fill:#f0f0f0"></path><path d="M377.24,127.18C372.36,135.29,370,145,369,154.32c-.76,9.37,0,19-3.43,28a68.8,68.8,0,0,1-8.19,16.24c-3.41,5.34-9.32,10.2-8.74,17,0,.2.3.3.34.06.86-6.16,4.91-11,8.46-15.81a70.42,70.42,0,0,0,8.46-15.88c5-11.77,2.44-24.71,5.18-36.92a83.18,83.18,0,0,1,6.88-19.34C378.06,127.3,377.5,126.78,377.24,127.18Z" style="fill:#f0f0f0"></path><path d="M358.85,179.82c-.39-8.79-3.7-17.1-3.82-25.92s1.11-17.82-1-26.55c-3.67-12.68-5.57-25.82-4.22-39-.06-1.28.69-3.7-.21-3.28-1.83,8.56-1.23,17.58-.08,26.22s4.85,16.9,4.79,25.74-1.24,17.57.72,26.21,4.19,17.63,2,26.45c-1.36,7.9-7.69,12.84-8.6,21.8a20.15,20.15,0,0,0,.37,4.09,7,7,0,0,0,0-1.14C349,202.67,360.25,195.5,358.85,179.82Z" style="fill:#f0f0f0"></path><path d="M352.49,220.47c-.38-.19-.87-.17-1.2-.42s-.28-.76-.23-1.17a1.64,1.64,0,0,0-.16-1.07c-.2-.36-.53-.44-.84-.65a2.34,2.34,0,0,1-.74-1.14,4.4,4.4,0,0,0,2,.34,2.35,2.35,0,0,0,1.95-.92,1.66,1.66,0,0,0-.59-2,2.24,2.24,0,0,0-2.36-.2,2.81,2.81,0,0,0-1,.81,3.5,3.5,0,0,0-.36.58,3.61,3.61,0,0,0-.16.42h0a3.68,3.68,0,0,0-.74-1.75,2.81,2.81,0,0,0-2-1.07,1.3,1.3,0,0,0-1.5,1.21,2.33,2.33,0,0,0,1.38,1.73,6,6,0,0,0,2.24.63c-.16.29-.26.65-.39.91-.45.85-1.32.09-2-.05-.84-.17-1.31.37-1.67,1a1.2,1.2,0,0,1-.82.7,1.56,1.56,0,0,1-1-.14c-.05,0-.08.07-.05.1a1.42,1.42,0,0,0,1.76.31c.71-.36.9-1.6,1.88-1.33a11.42,11.42,0,0,0,1.27.48,1.16,1.16,0,0,0,1-.3,2.2,2.2,0,0,0,.44-.81,1.42,1.42,0,0,1,.08-.18,2.92,2.92,0,0,0,.38.64,2.65,2.65,0,0,0,.8.69.74.74,0,0,1,.32.19,1,1,0,0,1,0,.52,2.48,2.48,0,0,0,0,1.18,1.73,1.73,0,0,0,.71.91,3.27,3.27,0,0,0,1.06.33,1.59,1.59,0,0,1,.57.18c.21.15.21.4.22.64,0,0,0,.05,0,.05.27,0,.31-.36.28-.56A1.21,1.21,0,0,0,352.49,220.47Zm-3.08-5.28c.14-.17.26-.36.4-.53a3.19,3.19,0,0,1,.86-.69,1.5,1.5,0,0,1,1.81.16.81.81,0,0,1,.13.83,1.21,1.21,0,0,1-.83.53,3.49,3.49,0,0,1-2.12-.05l-.33-.14A.76.76,0,0,0,349.41,215.19Zm-1.15-.09-.51-.07a6.11,6.11,0,0,1-.94-.22,2.5,2.5,0,0,1-1.35-.91c-.3-.5.23-.91.7-.94a2.06,2.06,0,0,1,1.45.6,3.34,3.34,0,0,1,.95,1.54l0,.05Z" style="fill:#f0f0f0"></path><g id="freepik--Balloon--inject-42"><path d="M348.59,82.91l-2.78,4.79s0,2.47,4.26,2.67c3.61.16,4.27-1.88,4.27-1.88l-1.79-5.12Z" style="fill:#BA68C8"></path><path d="M348.59,82.91l-2.78,4.79s0,2.47,4.26,2.67c3.61.16,4.27-1.88,4.27-1.88l-1.79-5.12Z" style="fill:#fff;opacity:0.2"></path><g id="freepik--Heart--inject-42"><path d="M356.44,35.07c-7.29-9-20-11.14-28.88-1.76-9.2,9.71-7.19,29.49,18.24,47.83a10.56,10.56,0,0,0,11.29.5c14.36-7.84,24-19.9,24.17-32.35C381.42,34.89,365,27.7,356.44,35.07Z" style="fill:#BA68C8"></path><path d="M356.44,35.07c-7.29-9-20-11.14-28.88-1.76-9.2,9.71-7.19,29.49,18.24,47.83a10.56,10.56,0,0,0,11.29.5c14.36-7.84,24-19.9,24.17-32.35C381.42,34.89,365,27.7,356.44,35.07Z" style="fill:#fff;opacity:0.30000000000000004"></path><path d="M370.23,33.17c-4.72-1.76-10-1.34-13.79,1.9a12.39,12.39,0,0,1,2.66,5.37C360.4,37.66,363.5,31.94,370.23,33.17Z" style="fill:#BA68C8;opacity:0.6000000000000001"></path><path d="M325.88,46.47c0-10.11,8-18.48,13.35-19.16a18.58,18.58,0,0,0-11.67,6c-9.2,9.71-7.19,29.49,18.24,47.83a10.7,10.7,0,0,0,1.45.87C330.17,69.26,325.86,55.59,325.88,46.47Z" style="fill:#BA68C8;opacity:0.6000000000000001"></path></g><path d="M351.85,84a11,11,0,0,1-4.63-.93.51.51,0,1,1,.5-.89,10,10,0,0,0,5.8.6.5.5,0,0,1,.65.32.51.51,0,0,1-.32.65A6.59,6.59,0,0,1,351.85,84Z" style="fill:#37474f"></path></g><g id="freepik--balloon--inject-42"><path d="M377.4,132.48l.69,5.49s-1,2.26-5,.8c-3.39-1.25-3.21-3.39-3.21-3.39l3.64-4Z" style="fill:#BA68C8"></path><path d="M377.4,132.48l.69,5.49s-1,2.26-5,.8c-3.39-1.25-3.21-3.39-3.21-3.39l3.64-4Z" style="opacity:0.1"></path><g id="freepik--heart--inject-42"><path d="M388.79,85.36C399,79.91,411.55,82.88,416.08,95c4.69,12.53-4.86,30-35.43,37A10.55,10.55,0,0,1,370.06,128c-10.17-12.8-14.39-27.68-9.67-39.2C365.85,75.46,383.74,75.22,388.79,85.36Z" style="fill:#BA68C8"></path><path d="M388.79,85.36C399,79.91,411.55,82.88,416.08,95c4.69,12.53-4.86,30-35.43,37A10.55,10.55,0,0,1,370.06,128c-10.17-12.8-14.39-27.68-9.67-39.2C365.85,75.46,383.74,75.22,388.79,85.36Z" style="opacity:0.1"></path><path d="M376.83,78.24c5,.21,9.74,2.66,12,7.12a12.25,12.25,0,0,0-4.54,3.91C384.14,86.2,383.51,79.73,376.83,78.24Z" style="opacity:0.2"></path><path d="M412.5,107.76c3.91-9.33-.19-20.15-4.84-22.85A18.52,18.52,0,0,1,416.08,95c4.69,12.53-4.86,30-35.43,37a10.5,10.5,0,0,1-1.67.24C399.68,127.07,409,116.16,412.5,107.76Z" style="opacity:0.2"></path></g><path d="M378.13,133.22a11.25,11.25,0,0,1-5.93-2,.52.52,0,0,1,.69-.77,9.86,9.86,0,0,0,5.57,1.71.51.51,0,0,1,.57.45.52.52,0,0,1-.46.57Z" style="fill:#37474f"></path></g><g id="freepik--balloon--inject-42"><path d="M335,144.25l-1,5.45s.87,2.31,4.91,1.05c3.46-1.08,3.38-3.22,3.38-3.22l-3.43-4.2Z" style="fill:#BA68C8"></path><path d="M335,144.25l-1,5.45s.87,2.31,4.91,1.05c3.46-1.08,3.38-3.22,3.38-3.22l-3.43-4.2Z" style="fill:#fff;opacity:0.7000000000000001"></path><g id="freepik--heart--inject-42"><path d="M326,96.61c-9.93-6-22.61-3.63-27.74,8.23-5.32,12.27,3.33,30.17,33.51,38.7a10.57,10.57,0,0,0,10.78-3.4c10.8-12.27,15.77-26.92,11.64-38.66C349.44,87.89,331.59,86.74,326,96.61Z" style="fill:#BA68C8"></path><path d="M326,96.61c-9.93-6-22.61-3.63-27.74,8.23-5.32,12.27,3.33,30.17,33.51,38.7a10.57,10.57,0,0,0,10.78-3.4c10.8-12.27,15.77-26.92,11.64-38.66C349.44,87.89,331.59,86.74,326,96.61Z" style="fill:#fff;opacity:0.8"></path><path d="M338.34,90.1c-5,0-9.87,2.17-12.31,6.51a12.21,12.21,0,0,1,4.33,4.14C330.63,97.69,331.59,91.26,338.34,90.1Z" style="fill:#BA68C8;opacity:0.30000000000000004"></path><path d="M301.22,117.78c-3.43-9.51,1.2-20.11,6-22.57a18.61,18.61,0,0,0-8.91,9.63c-5.32,12.27,3.33,30.17,33.51,38.7a10.45,10.45,0,0,0,1.65.32C313,137.72,304.32,126.35,301.22,117.78Z" style="fill:#BA68C8;opacity:0.30000000000000004"></path></g><path d="M334.55,145a5.5,5.5,0,0,1-.74-.05.52.52,0,0,1,.16-1,9.81,9.81,0,0,0,5.65-1.42.53.53,0,0,1,.73.08.52.52,0,0,1-.08.72A11.15,11.15,0,0,1,334.55,145Z" style="fill:#37474f"></path></g></g></g><g id="freepik--Characters--inject-42"><g id="freepik--Couple--inject-42"><g id="freepik--Arm--inject-42"><path d="M340.21,221c3,2.53,5.93,3.11,8.48,3.91s6.88-2.8,6.88-2.8L354.06,218l-7.37-.7Z" style="fill:#f28f8f"></path><path d="M276.92,158.11c9.36,3,10.41,4.41,20.18,23.35,4,7.82,10.54,21.13,10.54,21.13s23,3.14,32.33,3.81c8.09.59,6.85,14.75,4,14.75,0,0-32.64.57-39.93.5-6.47-.05-7.83-1.37-11.48-6.62-6-8.62-16.3-26.24-16.3-26.24Z" style="fill:#ffa8a7"></path><path d="M277,157.66c5.86,1.7,8.28,2.78,11.87,8s19.26,36.74,19.26,36.74l8.68,1.41s-3.25,1.81-4.4,7.4c-1.4,6.78.37,10.41.37,10.41s-5.33.07-11.37.08-7.64-2-10.79-6.66-15.09-24.92-15.09-24.92Z" style="fill:#37474f"></path><path d="M308.1,202.39c-2.68,0-8.71,1.39-10.79,6.93,0-3,2.23-8.06,9.72-9.08Z" style="fill:#263238"></path></g><g id="freepik--Leg--inject-42"><polygon points="231.31 326.24 236.72 329.28 238.51 325.3 233.66 324.7 231.31 326.24"></polygon><path d="M235.47,314.9s-3,2.25-4,3-.51,7-.17,8.36l2.35-1.54a21.6,21.6,0,0,1-1.58,5.13c-.67,1.84-2.33,4.86-2.28,8.33.08,5.14,2.81,11,6.71,16s7.44,6.78,9.65,7.28,3.81-.1,4.75-1.48S235.47,314.9,235.47,314.9Z" style="fill:#263238"></path><path d="M256.27,319.59l1.83-1.28c.78.87-1.67,2.95-2.71,6.05a57,57,0,0,0-3,14.18c-.35,8.69.53,15.46.35,19.35-.23,5.21-8.87,3.66-15.08-4.64-3.09-4.13-7-12.78-6.3-16.69s3.28-8.17,3.65-11.16-.76-7.8.46-10.5c.68-1.49,3.54-3.41,6.05-5,2.3-1.42,5.49-4,6.21-2.63l-1,1c-.5,1.22-1.06,3.56,1.07,7.18C248.87,317.26,252.7,322.11,256.27,319.59Z" style="fill:#455a64"></path><path d="M249.87,318.07c1.4,1.4,3.27,2.61,5.17,2.1h.06a5,5,0,0,0-2.37,3.74c-.46,2.81-4.64,21.59-4.64,21.59s2.65-16.44,3.12-19.57c.7-4.62.39-5.63-1.35-7.86Z" style="opacity:0.15"></path><path d="M248.43,322.65a.63.63,0,0,1-.88-.17.64.64,0,0,1,.18-.88.62.62,0,0,1,.87.17A.63.63,0,0,1,248.43,322.65Z" style="opacity:0.15"></path><path d="M247.81,327.16a.63.63,0,1,1-.7-1.05.63.63,0,0,1,.7,1.05Z" style="opacity:0.15"></path><path d="M247.19,331.68a.64.64,0,0,1-.88-.18.63.63,0,0,1,.17-.88.64.64,0,0,1,.88.18A.63.63,0,0,1,247.19,331.68Z" style="opacity:0.15"></path><path d="M246.57,336.19a.64.64,0,0,1-.88-.18.63.63,0,0,1,.17-.88.64.64,0,0,1,.88.18A.63.63,0,0,1,246.57,336.19Z" style="opacity:0.15"></path><path d="M246,340.7a.64.64,0,0,1-.88-.18.62.62,0,0,1,.17-.87.63.63,0,0,1,.88.17A.64.64,0,0,1,246,340.7Z" style="opacity:0.15"></path><path d="M247.87,322.27a.34.34,0,0,1-.05-.17.26.26,0,0,1,.28-.23c.18,0,4.39.46,6.77,3.66h0a.26.26,0,0,1-.06.35.25.25,0,0,1-.35-.05c-2.26-3-6.38-3.46-6.42-3.46A.27.27,0,0,1,247.87,322.27Z" style="fill:#263238"></path><path d="M247.26,326.78a.26.26,0,0,1,0-.17.26.26,0,0,1,.28-.23,10.36,10.36,0,0,1,6.77,3.66h0a.26.26,0,0,1-.42.3c-2.24-3-6.37-3.45-6.41-3.46A.22.22,0,0,1,247.26,326.78Z" style="fill:#263238"></path><path d="M246.63,331.3a.27.27,0,0,1,0-.18.25.25,0,0,1,.28-.22,10.33,10.33,0,0,1,6.77,3.65h0a.25.25,0,0,1-.06.35.27.27,0,0,1-.36-.05c-2.24-3-6.37-3.45-6.41-3.46A.27.27,0,0,1,246.63,331.3Z" style="fill:#263238"></path><path d="M246,335.81a.22.22,0,0,1,0-.17.25.25,0,0,1,.28-.23,10.36,10.36,0,0,1,6.77,3.66h0a.24.24,0,0,1,0,.35.26.26,0,0,1-.36-.05c-2.25-3-6.37-3.45-6.41-3.46A.21.21,0,0,1,246,335.81Z" style="fill:#263238"></path><path d="M245.39,340.32a.22.22,0,0,1,0-.17.25.25,0,0,1,.28-.23,10.43,10.43,0,0,1,6.77,3.66h0a.25.25,0,0,1,0,.35.26.26,0,0,1-.36-.05c-2.25-3-6.37-3.45-6.41-3.45A.25.25,0,0,1,245.39,340.32Z" style="fill:#263238"></path><path d="M309.47,274.33C303.2,261.44,268.42,233,268.42,233s-24.46,17.59-19.13,31.2c0,0,16.6,11.64,24.91,18.2-4.87,2.5-8.61,4.83-14.8,11.2-8.41,8.67-15.1,14.56-15.1,14.56-3.3,3.53.39,16.47,10.27,18.88,0,0,39.4-24.89,46.74-29.93C306.93,293.21,314.46,284.58,309.47,274.33Z" style="fill:#37474f"></path><path d="M259.4,293.55c-.85.88-1.68,1.72-2.49,2.54h0s11.63-6.44,15.31-8.3c4.46-2.26,9.5-.63,9.5-.63s-1.77-1.11-7.51-4.82C269.33,284.85,265.59,287.18,259.4,293.55Z" style="fill:#263238"></path><path d="M258.87,262.81c2.11-3,7.07-9,7.36-16.06l-17.7,13.52a11.11,11.11,0,0,0,.76,3.88s9.15,6.41,17.26,12.4h0S257,265.47,258.87,262.81Z" style="fill:#263238"></path></g><g id="freepik--Bike--inject-42"><path d="M332.42,399.39l-.12-.26a113.89,113.89,0,0,1-8.91-32l-5-39.35c-.09-.7-.38-3-2.35-1.85s-1.8,1.78-1.72,2.49l4.91,38.92a114.24,114.24,0,0,0,10.33,35.06h0c.51.5,1.51.67,2.58-.24S332.85,400.33,332.42,399.39Z" style="fill:#BA68C8"></path><path d="M332.42,399.39l-.12-.26a113.89,113.89,0,0,1-8.91-32l-5-39.35c-.09-.7-.38-3-2.35-1.85s-1.8,1.78-1.72,2.49l4.91,38.92a114.24,114.24,0,0,0,10.33,35.06h0c.51.5,1.51.67,2.58-.24S332.85,400.33,332.42,399.39Z" style="opacity:0.4"></path><path d="M335.49,349.11l-2.71-1.57c-6.67-3.85-13-5.7-18.59-5.78h-.48a27.39,27.39,0,0,0-2.9.17c-8.84.94-14.42,3.59-19.6,10.24l-.3.37a6.56,6.56,0,0,0-.52.69c-.12.15-.23.31-.34.47l-.4.59c-.25.38-.49.76-.72,1.17-.08.13-.15.28-.24.43s-.21.38-.32.59l0,.06a31.81,31.81,0,0,0-3.84,15.2V373c0,.58,0,1.18,0,1.78v3.13c0,27.11,19,60.08,42.5,73.62l2.71,1.57c6.67,3.85,13,5.71,18.59,5.79h.39c.37,0,.74,0,1.1,0h.35c.32,0,.63,0,.94-.08l.48-.05.25,0c9.13-1,14.92-3.94,20.07-11,.23-.29.44-.6.65-.91l.08-.12c.24-.36.44-.76.71-1.1,2.79-3.56,4.7-11.4,4.7-19.72v-3.13C378,395.63,359,362.66,335.49,349.11ZM328.34,448c-22.16-12.79-40.12-43.9-40.12-69.48s18-36,40.12-23.16,40.11,43.9,40.11,69.48S350.49,460.79,328.34,448Z" style="fill:#455a64"></path><path d="M329.69,351.81,327,350.24c-11.61-6.7-22.13-7.4-29.81-3.11l-.59.35-.15.09c-.23.15-.46.29-.68.45a6.2,6.2,0,0,0-.67.47,12.28,12.28,0,0,0-1.29,1c-.2.17-.41.36-.61.55a14.48,14.48,0,0,0-1.17,1.18c-.2.21-.39.43-.56.64s-.37.43-.54.66a6.56,6.56,0,0,0-.52.69c-.12.15-.23.31-.34.47l-.4.59c-.25.38-.49.76-.72,1.17-.08.13-.15.28-.24.43s-.21.38-.32.59l-.29.59c-.35.71-.69,1.46-1,2.23-.17.42-.33.83-.46,1.25,0,0,0,0,0,.05-.27.77-.5,1.56-.72,2.38-.12.44-.23.88-.33,1.34s-.23,1-.33,1.57c0,.25-.09.5-.13.76-.07.43-.13.87-.19,1.31s-.13,1-.18,1.5l0,.24c0,.43-.08.86-.11,1.31l0,.53c0,.48-.05,1-.06,1.47s0,1.18,0,1.78v3.13c0,27.11,19,60.08,42.5,73.62l2.71,1.57c6.83,3.94,13.27,5.81,19,5.81.37,0,.74,0,1.1,0h.35c.32,0,.63,0,.94-.08l.48-.05c.31,0,.62-.08.93-.13s.56-.09.82-.15.54-.09.8-.16c.51-.12,1-.26,1.49-.42.21-.05.41-.12.62-.19l.68-.25c.19-.08.38-.14.56-.23.42-.17.82-.35,1.21-.55a6.63,6.63,0,0,0,.59-.31l.16-.09a.68.68,0,0,0,.22-.12c.13-.06.25-.14.38-.21,7.55-4.5,12.2-14,12.2-27.37v-3.13C372.2,398.33,353.16,365.36,329.69,351.81ZM328.34,448c-22.16-12.79-40.12-43.9-40.12-69.48s18-36,40.12-23.16,40.11,43.9,40.11,69.48S350.49,460.79,328.34,448Z" style="fill:#37474f"></path><path d="M358.17,441.44c-6.34,7.55-17.33,8.62-29.83,1.41-19.7-11.36-35.66-39-35.66-61.76,0-10.16,3.19-17.62,8.48-21.76-3.69,4.36-5.83,10.86-5.83,19.19,0,22.74,16,50.39,35.66,61.77C341.88,446.57,351.63,446.56,358.17,441.44Z" style="fill:#BA68C8"></path><path d="M358.17,441.44c-6.34,7.55-17.33,8.62-29.83,1.41-19.7-11.36-35.66-39-35.66-61.76,0-10.16,3.19-17.62,8.48-21.76-3.69,4.36-5.83,10.86-5.83,19.19,0,22.74,16,50.39,35.66,61.77C341.88,446.57,351.63,446.56,358.17,441.44Z" style="opacity:0.2"></path><path d="M328.34,355.36c-22.16-12.79-40.12-2.42-40.12,23.16s18,56.69,40.12,69.48,40.11,2.42,40.11-23.16S350.49,368.15,328.34,355.36Zm0,87.49c-19.7-11.37-35.66-39-35.66-61.76s16-32,35.66-20.59,35.65,39,35.65,61.77S348,454.22,328.34,442.85Z" style="fill:#BA68C8"></path><path d="M362.79,411c-.08-.4-.17-.8-.26-1.2l-31.06-8.33,27.75-2.48c-.14-.35-.27-.71-.41-1.06l-28.05,2.5L353.6,387.2l-.56-.94-22.83,13.17,16.11-22.91c-.23-.3-.47-.6-.71-.89L329.67,398.3l8.24-30.75-.92-.82L328.89,397V360.84l-.55-.34c-.19-.1-.37-.19-.55-.3v35.53l-8-39c-.4-.12-.8-.22-1.19-.32l7.86,38.43-15.21-39.22c-.39,0-.77.05-1.14.1l15.11,38.93-21.41-37.07c-.32.17-.64.34-1,.53l21.42,37.09L298,362.53c-.23.3-.45.61-.67.92l26.5,33-29.65-26.29c-.12.38-.23.77-.34,1.17L323.92,398,292.7,380c0,.38,0,.75,0,1.14v.11l31.77,18.34-30.78-8.25c.07.4.15.8.23,1.2l31.3,8.39-28.14,2.51c.13.36.27.71.41,1.07l28.44-2.54-23.28,13.44.54.95,23.29-13.44L310,426.35l.72.89L327,404l-8.46,31.61.91.82,8.34-31.11v37.2c.18.11.36.23.55.33s.36.2.55.3V406.57l8.2,40.08,1.18.31-8.09-39.54,15.61,40.24c.38,0,.76-.06,1.14-.11l-15.5-39.95,21.87,37.88c.32-.18.63-.37.94-.57l-21.86-37.86,26.7,33.23c.22-.31.45-.62.65-.95l-26.89-33.45,29.89,26.51q.16-.6.3-1.2l-30.28-26.86,31.24,18v-.1c0-.39,0-.79,0-1.18l-31.75-18.33Z" style="fill:#ebebeb"></path><path d="M330,390.73c-2.46-1.42-4.67-1.5-6.24-.52-.33.21-.72.39-1.14.64a3.87,3.87,0,0,0-.34.21l-.06,0,0,0a3.39,3.39,0,0,0-.42.35l-.09.08c-.12.12-.23.25-.34.38l-.12.16a3.77,3.77,0,0,0-.26.39c-.05.08-.09.16-.13.24s-.14.26-.2.4a3.05,3.05,0,0,0-.13.32c-.05.13-.1.26-.14.4s-.07.28-.11.42-.06.25-.08.38a5,5,0,0,0-.08.56c0,.11,0,.21-.05.32,0,.31,0,.63,0,1,0,5.52,3.88,12.22,8.65,15a8.4,8.4,0,0,0,.89.46l.51.21.35.14.35.1c.17,0,.33.1.49.13l.19,0a4.55,4.55,0,0,0,.63.09h0A4.51,4.51,0,0,0,335,412c.42-.24.79-.42,1.26-.71,1.52-.91,2.46-2.83,2.46-5.53C338.69,400.2,334.81,393.49,330,390.73Zm-2.47,16.62c-1.49-1.15-3.57-4.65-4.38-6.61a13.45,13.45,0,0,0,1.51.93c2.25,1.16,2.19-.41,3.11.68s.74,3.78,0,5.16A1.08,1.08,0,0,1,327.57,407.35ZM332,397.11a1.79,1.79,0,0,0-.37.16l-1.32.76a1.7,1.7,0,0,0-.67.66,12.06,12.06,0,0,1-2.3-6.47c1.94.66,5.16,3.36,5.66,4.4a1.86,1.86,0,0,1,.09.24A5.16,5.16,0,0,0,332,397.11ZM325.39,396c.72,2.62,1.82,3,1.89,3.87-1.7-.27-4.47-1.93-4.65-3.57a6.57,6.57,0,0,1,1.49-4.39C324.84,392.19,324.79,393.82,325.39,396Zm4.89,13.72c-.9-.83.1-1.63.56-3.33a4.51,4.51,0,0,0,0-2.48c1.78,1.39,4.43,5.07,3.75,6.15l-.09.11C333,410.52,330.91,410.26,330.28,409.68ZM334.5,404c-1.88-2.51-2.62-1.65-3.08-3a1.73,1.73,0,0,1,.61-1.8,2.23,2.23,0,0,1,2.73.91,16.69,16.69,0,0,1,1.47,6.45C335.78,405.89,335.22,404.94,334.5,404Z" style="fill:#e0e0e0"></path><path d="M330,390.73c-2.46-1.42-4.67-1.5-6.24-.52-.33.21-.72.39-1.14.64a3.87,3.87,0,0,0-.34.21l-.06,0,0,0a3.39,3.39,0,0,0-.42.35l-.09.08c-.12.12-.23.25-.34.38l-.12.16a3.77,3.77,0,0,0-.26.39c-.05.08-.09.16-.13.24s-.14.26-.2.4a3.05,3.05,0,0,0-.13.32c-.05.13-.1.26-.14.4s-.07.28-.11.42-.06.25-.08.38a5,5,0,0,0-.08.56c0,.11,0,.21-.05.32,0,.31,0,.63,0,1,0,5.52,3.88,12.22,8.65,15a8.4,8.4,0,0,0,.89.46l.51.21.35.14.35.1c.17,0,.33.1.49.13l.19,0a4.55,4.55,0,0,0,.63.09h0A4.51,4.51,0,0,0,335,412c.42-.24.79-.42,1.26-.71,1.52-.91,2.46-2.83,2.46-5.53C338.69,400.2,334.81,393.49,330,390.73Zm-2.47,16.62c-1.49-1.15-3.57-4.65-4.38-6.61a13.45,13.45,0,0,0,1.51.93c2.25,1.16,2.19-.41,3.11.68s.74,3.78,0,5.16A1.08,1.08,0,0,1,327.57,407.35ZM332,397.11a1.79,1.79,0,0,0-.37.16l-1.32.76a1.7,1.7,0,0,0-.67.66,12.06,12.06,0,0,1-2.3-6.47c1.94.66,5.16,3.36,5.66,4.4a1.86,1.86,0,0,1,.09.24A5.16,5.16,0,0,0,332,397.11ZM325.39,396c.72,2.62,1.82,3,1.89,3.87-1.7-.27-4.47-1.93-4.65-3.57a6.57,6.57,0,0,1,1.49-4.39C324.84,392.19,324.79,393.82,325.39,396Zm4.89,13.72c-.9-.83.1-1.63.56-3.33a4.51,4.51,0,0,0,0-2.48c1.78,1.39,4.43,5.07,3.75,6.15l-.09.11C333,410.52,330.91,410.26,330.28,409.68ZM334.5,404c-1.88-2.51-2.62-1.65-3.08-3a1.73,1.73,0,0,1,.61-1.8,2.23,2.23,0,0,1,2.73.91,16.69,16.69,0,0,1,1.47,6.45C335.78,405.89,335.22,404.94,334.5,404Z" style="opacity:0.2"></path><path d="M328.7,391.48c-4.77-2.75-8.65-.51-8.65,5s3.88,12.22,8.65,15,8.65.52,8.65-5S333.48,394.24,328.7,391.48Zm-2.14.59c1.71,0,5.82,3.36,6.39,4.55s-.94.75-2.32,1.24c-1.75.62-.92,2.31-1.95,1.89C327.18,399.12,324.86,392,326.56,392.07Zm-2.58-.26c.88.15.78,1.87,1.41,4.15.8,2.89,2.06,3.08,1.88,4.15-.26,1.59-5.71-.78-6-3.1S323.1,391.65,324,391.81Zm2.26,16.29c-1.87-1.45-4.71-6.66-4.73-7.76s1.42.41,3.19,1.33c2.25,1.16,2.19-.41,3.11.68C329.16,404,328.11,409.56,326.24,408.1Zm8.32,1.92c-.9,1.42-4.71,1.23-5.61.41s.11-1.63.57-3.34c.58-2.16-.7-3.33,0-3.73C330.65,402.77,335.45,408.6,334.56,410Zm-1.38-5.28c-1.88-2.51-2.63-1.65-3.08-3-.67-2,3.34-4,4.66-1.64s1.79,7.44,1.26,8S334.66,406.71,333.18,404.74Z" style="fill:#e0e0e0"></path><path d="M328.34,406.4c2.26,1.31,4.09.25,4.09-2.36a9,9,0,0,0-4.09-7.08c-2.26-1.31-4.09-.25-4.09,2.36A9,9,0,0,0,328.34,406.4Z" style="fill:#455a64"></path><path d="M350.63,357.53l-1.9,1.65a70.72,70.72,0,0,0-13.24-10.06l-2.71-1.57c-6.67-3.86-13-5.71-18.59-5.79h0l-.5,0a25.12,25.12,0,0,0-2.9.16c-8.83.94-14.41,3.59-19.59,10.25l-.31.36c-.18.23-.36.45-.52.69l-.33.47c-.15.2-.27.39-.4.59-.24.38-.49.76-.71,1.17l-.25.43c-.11.19-.21.38-.31.59,0,0,0,0,0,.06a31.81,31.81,0,0,0-3.84,15.2V373c0,.58,0,1.18,0,1.78v3.13a78,78,0,0,0,5.7,27.86l-1.58,1.14s-7.74-16.09-8.73-34,8.36-32.11,27.16-35.61S350.63,357.53,350.63,357.53Z" style="fill:#e0e0e0"></path><path d="M350.63,357.53l-1.9,1.65a70.72,70.72,0,0,0-13.24-10.06l-2.71-1.57c-6.67-3.86-13-5.71-18.59-5.79h0l-.5,0a25.12,25.12,0,0,0-2.9.16c-8.83.94-14.41,3.59-19.59,10.25l-.31.36c-.18.23-.36.45-.52.69l-.33.47c-.15.2-.27.39-.4.59-.24.38-.49.76-.71,1.17l-.25.43c-.11.19-.21.38-.31.59,0,0,0,0,0,.06a31.81,31.81,0,0,0-3.84,15.2V373c0,.58,0,1.18,0,1.78v3.13a78,78,0,0,0,5.7,27.86l-1.58,1.14s-7.74-16.09-8.73-34,8.36-32.11,27.16-35.61S350.63,357.53,350.63,357.53Z" style="opacity:0.30000000000000004"></path><path d="M354.06,357.84a16.08,16.08,0,0,1-5.43,4.1C348.57,362,346,363,346,363a89.78,89.78,0,0,0-17.36-14.17c-25.79-15.65-46.85-7.8-47,25.45,0,10,2.85,22.8,7,32.65a7,7,0,0,1-3.33-1.37c-3.92-10.21-6.18-20.7-6.18-30.5v-3.48c0-.66,0-1.34,0-2v-1.41a35.1,35.1,0,0,1,4.26-16.88l0-.07c.12-.23.23-.45.36-.66l.27-.48c.25-.45.52-.87.79-1.29a7,7,0,0,1,.45-.66c.12-.18.24-.35.37-.52a6.1,6.1,0,0,1,.58-.76c.11-.15.22-.28.34-.42l.25-.32c5.68-7.16,11.84-10,21.52-11.05a26,26,0,0,1,3.22-.19h.54c6.24.08,13.25,2.14,20.65,6.42l3,1.74A81.46,81.46,0,0,1,354.06,357.84Z" style="fill:#fafafa"></path><path d="M348.63,361.94S346,363,346,363a89.78,89.78,0,0,0-17.36-14.17c-25.79-15.65-46.85-7.8-47,25.45,0,10,2.85,22.8,7,32.65a7,7,0,0,1-3.33-1.37c-3.92-10.21-6.18-20.7-6.18-30.5v-3.48c0-.66,0-1.34,0-2s0-1.1.08-1.64c0-.19,0-.39,0-.58,0-.49.08-1,.13-1.46l0-.26c.06-.57.12-1.12.2-1.66s.12-1,.21-1.46c.05-.29.1-.57.14-.85.11-.58.23-1.18.37-1.74s.24-1,.37-1.49c.24-.91.5-1.8.79-2.65,0,0,0,0,0-.05.15-.47.32-.92.51-1.38a24.31,24.31,0,0,1,1.09-2.49l.29-.58,0-.07c.12-.23.23-.45.36-.66l.27-.48c.25-.45.52-.87.79-1.29a7,7,0,0,1,.45-.66c.12-.18.24-.35.37-.52a6.1,6.1,0,0,1,.58-.76c.11-.15.22-.28.34-.42l.25-.32c.21-.24.41-.48.63-.71a16.32,16.32,0,0,1,1.31-1.32c.22-.21.45-.41.67-.6a15.19,15.19,0,0,1,1.43-1.14c.25-.19.5-.36.74-.52s.51-.33.77-.5l.17-.1c.21-.14.43-.26.64-.39,8.53-4.76,20.23-4,33.13,3.46l3,1.75A82.44,82.44,0,0,1,348.63,361.94Z" style="fill:#e0e0e0"></path><path d="M189.15,264.53,186.44,263c-6.67-3.85-13-5.7-18.59-5.78h-.48a25,25,0,0,0-2.9.17c-8.84.94-14.42,3.58-19.6,10.24l-.3.37a6.56,6.56,0,0,0-.52.69c-.12.15-.23.31-.34.47s-.27.39-.4.59c-.25.38-.49.76-.72,1.16-.08.14-.15.29-.24.44s-.21.38-.32.59l0,.06a31.81,31.81,0,0,0-3.84,15.2v1.27c0,.58,0,1.18,0,1.77v3.14c0,27.11,19,60.07,42.5,73.62l2.71,1.57c6.67,3.85,13,5.71,18.59,5.79h.39c.37,0,.73,0,1.1,0h.35c.32,0,.63,0,.94-.07l.47-.05.25,0c9.13-1,14.93-3.94,20.08-11,.23-.3.44-.6.65-.92a1,1,0,0,0,.08-.11c.24-.36.44-.76.71-1.11,2.79-3.55,4.7-11.39,4.7-19.71v-3.13C231.66,311,212.63,278.08,189.15,264.53ZM182,363.42c-22.16-12.8-40.12-43.9-40.12-69.48s18-36,40.12-23.16,40.11,43.9,40.11,69.48S204.15,376.21,182,363.42Z" style="fill:#455a64"></path><path d="M183.35,267.23l-2.71-1.57c-11.61-6.7-22.13-7.4-29.81-3.11l-.59.35-.15.09-.68.44c-.23.15-.46.31-.67.47a13.86,13.86,0,0,0-1.29,1c-.2.17-.41.36-.61.55a14.48,14.48,0,0,0-1.17,1.18c-.2.21-.39.43-.56.64s-.37.43-.54.66a6.56,6.56,0,0,0-.52.69c-.12.15-.23.31-.34.47s-.27.39-.4.59c-.25.38-.49.76-.72,1.16-.08.14-.15.29-.24.44s-.21.38-.32.59l-.29.58c-.35.72-.69,1.47-1,2.24-.17.42-.33.83-.46,1.25,0,0,0,0,0,0-.27.76-.5,1.56-.72,2.37-.12.45-.23.89-.33,1.35s-.23,1-.33,1.57c0,.25-.09.5-.13.76-.07.43-.13.87-.19,1.31s-.13,1-.18,1.49l0,.25c0,.43-.08.86-.11,1.3l0,.53c0,.49,0,1-.06,1.48s0,1.18,0,1.77v3.14c0,27.11,19,60.07,42.5,73.62l2.71,1.57c6.83,3.94,13.26,5.8,19,5.8.37,0,.73,0,1.1,0h.35c.32,0,.63,0,.94-.07l.47-.05c.32,0,.63-.08.94-.13s.56-.09.82-.15l.8-.16c.51-.12,1-.26,1.49-.42l.62-.19.68-.25.56-.23c.42-.17.82-.35,1.21-.55.2-.09.39-.2.59-.31l.16-.09a1.55,1.55,0,0,0,.22-.12c.13-.06.25-.14.38-.21,7.55-4.51,12.2-14,12.2-27.37v-3.13C225.86,313.74,206.82,280.78,183.35,267.23ZM182,363.42c-22.16-12.8-40.12-43.9-40.12-69.48s18-36,40.12-23.16,40.11,43.9,40.11,69.48S204.15,376.21,182,363.42Z" style="fill:#37474f"></path><path d="M211.83,356.86c-6.34,7.55-17.33,8.62-29.83,1.41-19.7-11.37-35.66-39-35.66-61.76,0-10.16,3.19-17.63,8.48-21.76-3.69,4.35-5.83,10.86-5.83,19.19,0,22.73,16,50.39,35.66,61.76C195.54,362,205.29,362,211.83,356.86Z" style="fill:#BA68C8"></path><path d="M211.83,356.86c-6.34,7.55-17.33,8.62-29.83,1.41-19.7-11.37-35.66-39-35.66-61.76,0-10.16,3.19-17.63,8.48-21.76-3.69,4.35-5.83,10.86-5.83,19.19,0,22.73,16,50.39,35.66,61.76C195.54,362,205.29,362,211.83,356.86Z" style="opacity:0.2"></path><path d="M182,270.78c-22.16-12.8-40.12-2.43-40.12,23.16s18,56.69,40.12,69.48,40.11,2.42,40.11-23.16S204.15,283.57,182,270.78Zm0,87.49c-19.7-11.37-35.66-39-35.66-61.76s16-32,35.66-20.59,35.65,39,35.65,61.76S201.69,369.64,182,358.27Z" style="fill:#BA68C8"></path><path d="M216.45,326.37c-.08-.4-.17-.8-.26-1.21l-31.06-8.32,27.75-2.48c-.14-.35-.27-.71-.41-1.06l-28.05,2.5,22.84-13.18-.56-.94-22.83,13.17L200,291.93l-.71-.88-15.94,22.67L191.57,283c-.31-.27-.61-.55-.92-.81l-8.1,30.25V276.26l-.55-.34c-.19-.1-.37-.19-.55-.3v35.53l-8-38.95c-.4-.12-.8-.23-1.19-.32l7.86,38.43-15.21-39.23-1.14.1,15.11,38.94L157.5,273.05c-.32.17-.64.34-1,.53L178,310.67,151.66,278c-.23.3-.45.61-.67.92l26.5,33-29.65-26.29c-.12.38-.23.77-.34,1.17l30.08,26.67-31.22-18c0,.38,0,.75,0,1.14v.11L178.11,315l-30.78-8.25c.07.4.15.8.23,1.2l31.3,8.39-28.14,2.51c.13.36.27.71.41,1.07l28.44-2.54-23.28,13.44.54,1,23.29-13.44-16.51,23.48.72.89,16.33-23.24L172.2,351c.3.28.6.56.91.83l8.34-31.11v37.2l.55.33c.18.11.36.2.55.3V322l8.2,40.08c.39.11.79.21,1.18.3l-8.09-39.54,15.61,40.24c.38,0,.76-.05,1.14-.1l-15.5-40L207,360.9c.32-.18.63-.37.94-.57L186,322.47l26.7,33.22c.22-.3.44-.61.65-.94L186.5,321.3l29.89,26.5q.17-.58.3-1.2l-30.28-26.85,31.24,18v-.11c0-.39,0-.78,0-1.17l-31.75-18.33Z" style="fill:#ebebeb"></path><path d="M183.7,306.15c-2.46-1.42-4.67-1.51-6.24-.52-.33.21-.72.39-1.14.64a3.87,3.87,0,0,0-.34.21l-.06,0,0,0a3.39,3.39,0,0,0-.42.35l-.09.08c-.12.12-.23.25-.34.38l-.12.16a3.77,3.77,0,0,0-.26.39c0,.08-.09.16-.13.24s-.14.26-.2.4a3.05,3.05,0,0,0-.13.32c-.05.13-.1.26-.14.39s-.07.29-.11.43-.06.25-.08.38-.06.37-.09.56,0,.21,0,.32c0,.31,0,.63,0,1,0,5.51,3.87,12.22,8.65,15a8.4,8.4,0,0,0,.89.46c.17.08.34.14.51.21l.35.14.35.1c.17,0,.33.1.49.13l.19,0,.62.09h.05a4.51,4.51,0,0,0,2.82-.66c.42-.24.79-.43,1.26-.71,1.52-.92,2.46-2.83,2.46-5.54C192.35,315.62,188.47,308.91,183.7,306.15Zm-2.47,16.62c-1.49-1.15-3.57-4.65-4.38-6.61a15.09,15.09,0,0,0,1.51.93c2.25,1.16,2.19-.41,3.11.68s.74,3.78,0,5.16A1.22,1.22,0,0,1,181.23,322.77Zm4.38-10.25a2.56,2.56,0,0,0-.37.17l-1.32.76a1.7,1.7,0,0,0-.67.66,12.06,12.06,0,0,1-2.3-6.47c1.94.66,5.16,3.35,5.66,4.39,0,.1.07.18.09.25A5.63,5.63,0,0,0,185.61,312.52Zm-6.56-1.14c.72,2.62,1.82,3,1.89,3.87-1.7-.28-4.47-1.93-4.65-3.57a6.57,6.57,0,0,1,1.49-4.39C178.5,307.61,178.45,309.24,179.05,311.38Zm4.89,13.71c-.9-.82.1-1.62.56-3.32a4.6,4.6,0,0,0,0-2.48c1.77,1.39,4.43,5.06,3.75,6.15l-.09.11C186.65,325.94,184.57,325.68,183.94,325.09Zm4.22-5.68c-1.88-2.51-2.63-1.65-3.08-3a1.73,1.73,0,0,1,.61-1.8,2.23,2.23,0,0,1,2.73.91,16.65,16.65,0,0,1,1.47,6.45C189.44,321.31,188.88,320.36,188.16,319.41Z" style="fill:#e0e0e0"></path><path d="M183.7,306.15c-2.46-1.42-4.67-1.51-6.24-.52-.33.21-.72.39-1.14.64a3.87,3.87,0,0,0-.34.21l-.06,0,0,0a3.39,3.39,0,0,0-.42.35l-.09.08c-.12.12-.23.25-.34.38l-.12.16a3.77,3.77,0,0,0-.26.39c0,.08-.09.16-.13.24s-.14.26-.2.4a3.05,3.05,0,0,0-.13.32c-.05.13-.1.26-.14.39s-.07.29-.11.43-.06.25-.08.38-.06.37-.09.56,0,.21,0,.32c0,.31,0,.63,0,1,0,5.51,3.87,12.22,8.65,15a8.4,8.4,0,0,0,.89.46c.17.08.34.14.51.21l.35.14.35.1c.17,0,.33.1.49.13l.19,0,.62.09h.05a4.51,4.51,0,0,0,2.82-.66c.42-.24.79-.43,1.26-.71,1.52-.92,2.46-2.83,2.46-5.54C192.35,315.62,188.47,308.91,183.7,306.15Zm-2.47,16.62c-1.49-1.15-3.57-4.65-4.38-6.61a15.09,15.09,0,0,0,1.51.93c2.25,1.16,2.19-.41,3.11.68s.74,3.78,0,5.16A1.22,1.22,0,0,1,181.23,322.77Zm4.38-10.25a2.56,2.56,0,0,0-.37.17l-1.32.76a1.7,1.7,0,0,0-.67.66,12.06,12.06,0,0,1-2.3-6.47c1.94.66,5.16,3.35,5.66,4.39,0,.1.07.18.09.25A5.63,5.63,0,0,0,185.61,312.52Zm-6.56-1.14c.72,2.62,1.82,3,1.89,3.87-1.7-.28-4.47-1.93-4.65-3.57a6.57,6.57,0,0,1,1.49-4.39C178.5,307.61,178.45,309.24,179.05,311.38Zm4.89,13.71c-.9-.82.1-1.62.56-3.32a4.6,4.6,0,0,0,0-2.48c1.77,1.39,4.43,5.06,3.75,6.15l-.09.11C186.65,325.94,184.57,325.68,183.94,325.09Zm4.22-5.68c-1.88-2.51-2.63-1.65-3.08-3a1.73,1.73,0,0,1,.61-1.8,2.23,2.23,0,0,1,2.73.91,16.65,16.65,0,0,1,1.47,6.45C189.44,321.31,188.88,320.36,188.16,319.41Z" style="opacity:0.2"></path><path d="M182.36,306.9c-4.78-2.75-8.65-.52-8.65,5s3.87,12.22,8.65,15,8.65.52,8.65-5S187.14,309.66,182.36,306.9Zm-2.14.59c1.71,0,5.82,3.36,6.39,4.54s-.94.76-2.32,1.25c-1.75.61-.92,2.31-1.95,1.88C180.84,314.54,178.51,307.46,180.22,307.49Zm-2.58-.26c.88.15.78,1.87,1.41,4.15.8,2.89,2.06,3.07,1.88,4.15-.26,1.59-5.71-.78-6-3.11S176.76,307.07,177.64,307.23Zm2.26,16.29c-1.87-1.46-4.71-6.67-4.73-7.76s1.42.41,3.19,1.33c2.25,1.16,2.19-.41,3.11.68C182.82,319.37,181.77,325,179.9,323.52Zm8.32,1.92c-.9,1.42-4.71,1.23-5.61.41s.11-1.63.57-3.34c.58-2.16-.7-3.33,0-3.73C184.31,318.19,189.11,324,188.22,325.44Zm-1.38-5.29c-1.88-2.5-2.63-1.64-3.08-3-.67-2,3.34-4,4.66-1.64s1.79,7.44,1.26,8S188.32,322.13,186.84,320.15Z" style="fill:#e0e0e0"></path><path d="M182,321.82c2.26,1.3,4.09.25,4.09-2.36a9.08,9.08,0,0,0-4.09-7.09c-2.26-1.3-4.09-.24-4.09,2.37A9,9,0,0,0,182,321.82Z" style="fill:#455a64"></path><path d="M204.29,273l-1.9,1.65a70.29,70.29,0,0,0-13.24-10.06L186.44,263c-6.67-3.86-13-5.72-18.59-5.79h-.49a25.1,25.1,0,0,0-2.9.17c-8.83.93-14.42,3.59-19.59,10.24-.1.12-.21.24-.31.37s-.36.45-.52.69l-.33.47c-.15.2-.27.39-.4.59-.24.38-.49.76-.71,1.17l-.25.43c-.11.19-.21.38-.31.59,0,0,0,0,0,.06a31.81,31.81,0,0,0-3.84,15.2v1.27c0,.58,0,1.17,0,1.78v3.13a78,78,0,0,0,5.7,27.86l-1.58,1.14s-7.74-16.09-8.73-34,8.36-32.11,27.16-35.6S204.29,273,204.29,273Z" style="fill:#e0e0e0"></path><path d="M204.29,273l-1.9,1.65a70.29,70.29,0,0,0-13.24-10.06L186.44,263c-6.67-3.86-13-5.72-18.59-5.79h-.49a25.1,25.1,0,0,0-2.9.17c-8.83.93-14.42,3.59-19.59,10.24-.1.12-.21.24-.31.37s-.36.45-.52.69l-.33.47c-.15.2-.27.39-.4.59-.24.38-.49.76-.71,1.17l-.25.43c-.11.19-.21.38-.31.59,0,0,0,0,0,.06a31.81,31.81,0,0,0-3.84,15.2v1.27c0,.58,0,1.17,0,1.78v3.13a78,78,0,0,0,5.7,27.86l-1.58,1.14s-7.74-16.09-8.73-34,8.36-32.11,27.16-35.6S204.29,273,204.29,273Z" style="opacity:0.30000000000000004"></path><path d="M207.72,273.26a16,16,0,0,1-5.44,4.1,28.26,28.26,0,0,1-2.67,1.05,90.21,90.21,0,0,0-17.36-14.18c-25.79-15.64-46.85-7.79-47,25.46,0,10,2.85,22.79,7,32.65a7.18,7.18,0,0,1-3.34-1.37c-3.91-10.22-6.17-20.71-6.17-30.51V287c0-.67,0-1.34,0-2V283.6A35.2,35.2,0,0,1,137,266.72l0-.07c.12-.23.23-.46.35-.66s.19-.33.28-.48c.25-.45.52-.87.79-1.29a5.91,5.91,0,0,1,.45-.66c.12-.18.24-.35.37-.52a7.05,7.05,0,0,1,.58-.77l.34-.41.25-.32c5.68-7.16,11.84-10,21.52-11.05a28.11,28.11,0,0,1,3.22-.2h.54c6.24.09,13.25,2.15,20.65,6.43l3,1.74A81.19,81.19,0,0,1,207.72,273.26Z" style="fill:#fafafa"></path><path d="M183,261.47l-3-1.75c-12.9-7.45-24.6-8.22-33.13-3.46l-.65.39-.16.1c-.26.17-.52.32-.77.5s-.49.33-.74.52a16.87,16.87,0,0,0-1.43,1.13l-.67.61a14.84,14.84,0,0,0-1.31,1.32c-.22.23-.42.47-.63.71l-.25.32-.34.41a7.05,7.05,0,0,0-.58.77c-.13.17-.25.34-.37.52a5.91,5.91,0,0,0-.45.66c-.27.42-.54.84-.79,1.29-.09.15-.18.32-.28.48s-.23.43-.35.66l0,.07-.28.58a24.14,24.14,0,0,0-1.09,2.48c-.19.47-.36.92-.51,1.39,0,0,0,0,0,.05-.29.85-.55,1.74-.79,2.64-.13.49-.26,1-.37,1.49s-.26,1.17-.37,1.75c0,.28-.09.56-.14.84-.09.48-.15,1-.21,1.47s-.14,1.09-.2,1.65l0,.27c-.05.49-.09,1-.13,1.46,0,.19,0,.39,0,.58,0,.54-.07,1.08-.08,1.64s0,1.31,0,2v3.47c0,9.8,2.26,20.29,6.17,30.51a7.18,7.18,0,0,0,3.34,1.37c-4.12-9.86-7-22.62-7-32.65.11-33.25,21.17-41.1,47-25.46a90.21,90.21,0,0,1,17.36,14.18,28.26,28.26,0,0,0,2.67-1.05A82.19,82.19,0,0,0,183,261.47Z" style="fill:#e0e0e0"></path><path d="M244.3,372.44a1.29,1.29,0,0,1-1.2-1.13l-14-110.8a1.3,1.3,0,0,1,1.12-1.45c.7-.09,2.86.1,2.95.8l14,110.81c.09.71-1.92,1.67-2.63,1.76Z" style="fill:#BA68C8"></path><path d="M244.3,372.44a1.29,1.29,0,0,1-1.2-1.13l-14-110.8a1.3,1.3,0,0,1,1.12-1.45c.7-.09,2.86.1,2.95.8l14,110.81c.09.71-1.92,1.67-2.63,1.76Z" style="opacity:0.2"></path><path d="M234.66,280l63.79,36.85,2.39-3.6L235.58,275.6C233.21,274.19,231.66,278.3,234.66,280Z" style="fill:#BA68C8"></path><path d="M234.66,280l63.79,36.85,2.39-3.6L235.58,275.6C233.21,274.19,231.66,278.3,234.66,280Z" style="opacity:0.30000000000000004"></path><path d="M313.21,319.49a1.49,1.49,0,0,0-2.08-.3l-3.8,2.85h0l-23.75,17.73-2.1-4.8a46,46,0,0,0,6.8-3.63c11.07-7.17,18.26-18.58,21.35-33.91a1.48,1.48,0,0,0-1.16-1.75c-.81-.16-2-.79-2.19,0-2.92,14.52-9.67,25.29-20,32-12,7.77-28.78,9.39-46.66,5.36l-48-16.08,45.82-12c.8-.21-.12-5.18-.91-5l-56.29,15a.77.77,0,0,0-.16.07l-.18.08a1.68,1.68,0,0,0-.33.25s-.05,0-.08.07v0a1.61,1.61,0,0,0-.26.46.9.9,0,0,0,0,.16,1.26,1.26,0,0,0,0,.28s0,.06,0,.09a1.37,1.37,0,0,0,0,.19,2,2,0,0,0,.09.33l.08.17a1.76,1.76,0,0,0,.24.3s0,.07.07.09l63,54.08a3.87,3.87,0,0,0,.51.35,2.56,2.56,0,0,0,1.31.38,2.83,2.83,0,0,0,1.76-.69l61.89-46.52,4.82-3.61A1.48,1.48,0,0,0,313.21,319.49Zm-68.42,48.29c-.69.51-1.1.86-1.29.72l-56.17-48.21,51.44,17.28.14,0A81.75,81.75,0,0,0,257,339.69a64.16,64.16,0,0,0,20.26-3.12l2.55,6Z" style="fill:#BA68C8"></path><path d="M313.21,319.49a1.49,1.49,0,0,0-2.08-.3l-3.8,2.85h0l-23.75,17.73-2.1-4.8a46,46,0,0,0,6.8-3.63c11.07-7.17,18.26-18.58,21.35-33.91a1.48,1.48,0,0,0-1.16-1.75c-.81-.16-2-.79-2.19,0-2.92,14.52-9.67,25.29-20,32-12,7.77-28.78,9.39-46.66,5.36l-48-16.08,45.82-12c.8-.21-.12-5.18-.91-5l-56.29,15a.77.77,0,0,0-.16.07l-.18.08a1.68,1.68,0,0,0-.33.25s-.05,0-.08.07v0a1.61,1.61,0,0,0-.26.46.9.9,0,0,0,0,.16,1.26,1.26,0,0,0,0,.28s0,.06,0,.09a1.37,1.37,0,0,0,0,.19,2,2,0,0,0,.09.33l.08.17a1.76,1.76,0,0,0,.24.3s0,.07.07.09l63,54.08a3.87,3.87,0,0,0,.51.35,2.56,2.56,0,0,0,1.31.38,2.83,2.83,0,0,0,1.76-.69l61.89-46.52,4.82-3.61A1.48,1.48,0,0,0,313.21,319.49Zm-68.42,48.29c-.85.66-1.17.84-1.29.72l-56.17-48.21,51.44,17.28.14,0A81.75,81.75,0,0,0,257,339.69a64.16,64.16,0,0,0,20.26-3.12l2.55,6S245.64,367.12,244.79,367.78Z" style="opacity:0.2"></path><path d="M304.79,301.67l1,8.26c.55-1.3,1.07-2.64,1.53-4l-1.21-9.62C305.76,298.15,305.3,299.94,304.79,301.67Z" style="opacity:0.2"></path><path d="M310.75,324.38a1.29,1.29,0,0,1-1.2-1.13l-4.37-34.61a1.3,1.3,0,0,1,1.12-1.44c.71-.09,2.86.09,2.95.8l4.37,34.61c.09.71-1.92,1.67-2.62,1.76A1.07,1.07,0,0,1,310.75,324.38Z" style="fill:#BA68C8"></path><path d="M310.75,324.38a1.29,1.29,0,0,1-1.2-1.13l-4.37-34.61a1.3,1.3,0,0,1,1.12-1.44c.71-.09,2.86.09,2.95.8l4.37,34.61c.09.71-1.92,1.67-2.62,1.76A1.07,1.07,0,0,1,310.75,324.38Z" style="opacity:0.4"></path><path d="M310,294l-.76-6c-.09-.71-2.24-.89-2.95-.8a1.3,1.3,0,0,0-1.12,1.44l.48,3.75A13.61,13.61,0,0,0,310,294Z" style="opacity:0.2"></path><path d="M330.19,400.7h0a51.55,51.55,0,0,1-14.64-29.95l-4.86-38.54c-.1-.7-.39-3-2.35-1.85s-1.81,1.78-1.73,2.49l5,39.81a51.55,51.55,0,0,0,14.64,29.95l1.08,1.08c.5.51,1.51.68,2.57-.23A1.94,1.94,0,0,0,330.19,400.7Z" style="fill:#BA68C8"></path><path d="M330.19,400.7h0a51.55,51.55,0,0,1-14.64-29.95l-4.86-38.54c-.1-.7-.39-3-2.35-1.85s-1.81,1.78-1.73,2.49l5,39.81a51.55,51.55,0,0,0,14.64,29.95l1.08,1.08c.5.51,1.51.68,2.57-.23A1.94,1.94,0,0,0,330.19,400.7Z" style="opacity:0.4"></path><path d="M308.57,315.45s.32,2.54.57,4.58c.23,1.76-3.47,5.38-3,9S307,336,307,336c.2,1.55,4.06-.75,3.88-2.23l-.34-2.65c-.26-2.07-.4-3.22.81-3.89l1.11-.65c1.4-.73,1.74.67,2,2.46l.37,3c.18,1.39,4.12-.22,3.87-2.22,0,0-.55-4.32-.92-7.26-.29-2.36-4.48-2.68-4.85-5.6l-.41-3.3C312.6,315.11,309.37,316.7,308.57,315.45Z" style="fill:#37474f"></path><path d="M254.93,267.23c-2.73-4.45-9.15-10.92-9.15-10.92S229.22,234,210.87,244.63a12.22,12.22,0,0,0-6.38,9,15.63,15.63,0,0,0-.13,4,9.6,9.6,0,0,0,2.27,5.59c2.42,3.34,9.25,6.08,17.44,8.15l1.77.43c2.92.67,5.87,1.23,8.81,1.83s5.83,1.19,8.7,2c1.18.32,2.35.66,3.49,1.08.47.18.94.37,1.39.58a7.39,7.39,0,0,0,1.58.59,3.78,3.78,0,0,0,1.46,0,6.47,6.47,0,0,0,1.13-.29,4.53,4.53,0,0,0,.9-.53,6.78,6.78,0,0,0,2.24-3.2A7.84,7.84,0,0,0,254.93,267.23Z" style="fill:#b16668"></path><path d="M210.87,244.63c-5.57,3.21-8.61,9.12-4.24,15.16,2.42,3.34,9.25,6.09,17.44,8.16s22.19,3.93,25.65,6.76,8.42-2.26,5.21-7.48c-2.73-4.45-9.15-10.92-9.15-10.92S229.22,234,210.87,244.63Z" style="fill:#b16668"></path><path d="M245.07,356.23c-3.4-2-6.45-2.08-8.63-.71-.45.28-1,.53-1.58.87-.16.09-.31.2-.46.3l-.08.05,0,0a5.38,5.38,0,0,0-.59.48l-.12.12a4.69,4.69,0,0,0-.47.53c-.06.06-.11.14-.17.21a5.81,5.81,0,0,0-.36.55,3.3,3.3,0,0,0-.18.32c-.1.18-.19.36-.28.55L232,360a5.1,5.1,0,0,0-.19.55,5.47,5.47,0,0,0-.15.58c-.05.18-.09.34-.13.52s-.08.52-.11.78l-.06.44c0,.43-.06.87-.06,1.33,0,7.63,5.36,16.91,12,20.73a12.9,12.9,0,0,0,1.22.63l.72.29c.16.06.32.14.48.19l.48.13c.23.07.46.14.69.19l.26,0c.29.06.58.1.86.13H248a6.22,6.22,0,0,0,3.89-.91c.58-.34,1.1-.6,1.76-1,2.1-1.26,3.39-3.91,3.39-7.65C257,369.33,251.67,360.05,245.07,356.23Zm-3.42,23c-2.05-1.6-4.93-6.44-6.06-9.14a22.69,22.69,0,0,0,2.09,1.28c3.12,1.61,3-.57,4.3.94s1,5.23,0,7.14A1.63,1.63,0,0,1,241.65,379.22Zm6.07-14.17a2.69,2.69,0,0,0-.51.23l-1.84,1a2.38,2.38,0,0,0-.92.92c-1.53-1.57-3.32-6.59-3.18-8.95,2.68.92,7.13,4.64,7.82,6.08a2.54,2.54,0,0,1,.13.34A7.68,7.68,0,0,0,247.72,365.05Zm-9.08-1.58c1,3.61,2.51,4.17,2.61,5.35-2.35-.38-6.18-2.67-6.43-4.94a9,9,0,0,1,2.07-6.07C237.88,358.25,237.82,360.51,238.64,363.47Zm6.76,19c-1.25-1.14.14-2.24.78-4.6a6.46,6.46,0,0,0,0-3.43c2.45,1.93,6.13,7,5.18,8.51a.88.88,0,0,1-.12.15C249.14,383.6,246.27,383.24,245.4,382.43Zm5.84-7.86c-2.6-3.48-3.63-2.28-4.26-4.13a2.4,2.4,0,0,1,.84-2.5,3.07,3.07,0,0,1,3.77,1.27c1.27,2.26,2,6.37,2,8.92C253,377.2,252.23,375.88,251.24,374.57Z" style="fill:#e0e0e0"></path><path d="M245.07,356.23c-3.4-2-6.45-2.08-8.63-.71-.45.28-1,.53-1.58.87-.16.09-.31.2-.46.3l-.08.05,0,0a5.38,5.38,0,0,0-.59.48l-.12.12a4.69,4.69,0,0,0-.47.53c-.06.06-.11.14-.17.21a5.81,5.81,0,0,0-.36.55,3.3,3.3,0,0,0-.18.32c-.1.18-.19.36-.28.55L232,360a5.1,5.1,0,0,0-.19.55,5.47,5.47,0,0,0-.15.58c-.05.18-.09.34-.13.52s-.08.52-.11.78l-.06.44c0,.43-.06.87-.06,1.33,0,7.63,5.36,16.91,12,20.73a12.9,12.9,0,0,0,1.22.63l.72.29c.16.06.32.14.48.19l.48.13c.23.07.46.14.69.19l.26,0c.29.06.58.1.86.13H248a6.22,6.22,0,0,0,3.89-.91c.58-.34,1.1-.6,1.76-1,2.1-1.26,3.39-3.91,3.39-7.65C257,369.33,251.67,360.05,245.07,356.23Zm-3.42,23c-2.05-1.6-4.93-6.44-6.06-9.14a22.69,22.69,0,0,0,2.09,1.28c3.12,1.61,3-.57,4.3.94s1,5.23,0,7.14A1.63,1.63,0,0,1,241.65,379.22Zm6.07-14.17a2.69,2.69,0,0,0-.51.23l-1.84,1a2.38,2.38,0,0,0-.92.92c-1.53-1.57-3.32-6.59-3.18-8.95,2.68.92,7.13,4.64,7.82,6.08a2.54,2.54,0,0,1,.13.34A7.68,7.68,0,0,0,247.72,365.05Zm-9.08-1.58c1,3.61,2.51,4.17,2.61,5.35-2.35-.38-6.18-2.67-6.43-4.94a9,9,0,0,1,2.07-6.07C237.88,358.25,237.82,360.51,238.64,363.47Zm6.76,19c-1.25-1.14.14-2.24.78-4.6a6.46,6.46,0,0,0,0-3.43c2.45,1.93,6.13,7,5.18,8.51a.88.88,0,0,1-.12.15C249.14,383.6,246.27,383.24,245.4,382.43Zm5.84-7.86c-2.6-3.48-3.63-2.28-4.26-4.13a2.4,2.4,0,0,1,.84-2.5,3.07,3.07,0,0,1,3.77,1.27c1.27,2.26,2,6.37,2,8.92C253,377.2,252.23,375.88,251.24,374.57Z" style="opacity:0.2"></path><path d="M243.22,357.27c-6.61-3.81-12-.71-12,6.91s5.36,16.91,12,20.73,12,.71,12-6.91S249.83,361.09,243.22,357.27Zm-3,.82c2.36,0,8.05,4.64,8.83,6.28s-1.29,1-3.2,1.72c-2.42.85-1.28,3.2-2.7,2.61C241.11,367.84,237.9,358.05,240.26,358.09Zm-3.57-.37c1.22.21,1.07,2.6,1.95,5.75,1.11,4,2.84,4.25,2.6,5.74-.37,2.19-7.89-1.08-8.26-4.3S235.48,357.51,236.69,357.72Zm3.12,22.53c-2.58-2-6.5-9.21-6.53-10.73s2,.57,4.4,1.84c3.12,1.61,3-.57,4.3.94C243.85,374.51,242.41,382.28,239.81,380.25Zm11.51,2.66c-1.24,2-6.51,1.7-7.76.56s.15-2.24.79-4.61c.8-3-1-4.6.06-5.16C245.91,372.88,252.56,381,251.32,382.91Zm-1.91-7.31c-2.6-3.46-3.63-2.28-4.26-4.13-.93-2.71,4.62-5.49,6.44-2.26s2.49,10.28,1.75,11.08S251.47,378.33,249.41,375.6Z" style="fill:#e0e0e0"></path><path d="M243.22,375.32c2,1.16,3.66.22,3.66-2.12a8.11,8.11,0,0,0-3.66-6.34c-2-1.16-3.66-.22-3.66,2.12A8.11,8.11,0,0,0,243.22,375.32Z" style="fill:#455a64"></path><path d="M231.13,390.4a1,1,0,0,1-.43-.1,1,1,0,0,1-.45-1.32l8.09-16.38,4.25-2.45a1,1,0,0,1,1,1.7L239.84,374,232,389.85A1,1,0,0,1,231.13,390.4Z" style="fill:#BA68C8"></path><g style="opacity:0.30000000000000004"><path d="M231.13,390.4a1,1,0,0,1-.43-.1,1,1,0,0,1-.45-1.32l8.09-16.38,4.25-2.45a1,1,0,0,1,1,1.7L239.84,374,232,389.85A1,1,0,0,1,231.13,390.4Z"></path></g><path d="M238.69,394l-14.79-8.54a1.38,1.38,0,0,0-1.39,0l-10.8,6.23a1.4,1.4,0,0,0-.7,1.21v.69a1.37,1.37,0,0,0,.7,1.2l14.8,8.55a1.4,1.4,0,0,0,1.4,0l10.78-6.24a1.4,1.4,0,0,0,.7-1.2v-.7A1.37,1.37,0,0,0,238.69,394Z" style="fill:#BA68C8"></path><path d="M238.69,394l-14.79-8.54a1.38,1.38,0,0,0-1.39,0l-10.8,6.23a1.4,1.4,0,0,0-.7,1.21v.69a1.37,1.37,0,0,0,.7,1.2l14.8,8.55a1.4,1.4,0,0,0,1.4,0l10.78-6.24a1.4,1.4,0,0,0,.7-1.2v-.7A1.37,1.37,0,0,0,238.69,394Z" style="opacity:0.2"></path><path d="M226.56,401.08a1.31,1.31,0,0,0,1.3,0l11.34-6.56a1.32,1.32,0,0,0-.51-.51L233,390.72l-9.1-5.25a1.38,1.38,0,0,0-1.39,0l-1.31.75-9.49,5.48a1.39,1.39,0,0,0-.51.51Z" style="fill:#BA68C8"></path></g><g id="freepik--Character--inject-42"><g id="freepik--Bottom--inject-42"><path d="M157.15,306.28c1.15-.29,1.39.76,2.86,1.9.66.52,1.75,1,3,1.79a9.47,9.47,0,0,1,2.43,2.3,6.33,6.33,0,0,1,1,4.3,17.4,17.4,0,0,0,.73,8c.64,2.22,2,4.66,3.57,8,1.87,4,2.89,7.89,1.26,12.69a17.41,17.41,0,0,1-4.16,6.54c-2,2.05-5.21,4.47-8.1,5.23-2,.53-5.05.63-6.8-1.21s-.37-5.16-.8-13.05c-.11-2.08-.44-4.13-.61-6.19-.15-1.85.65-3.82,1-5.63C154.25,322.77,155.74,314.53,157.15,306.28Z" style="fill:#37474f"></path><path d="M158.51,308.18s-.52-.68-.94-1.29a26.56,26.56,0,0,1-2.38-6.84c-.34-1.58-.95-4.61-1.65-8-1-5.46-2-12.5-3.8-17-4.39-11.2-5.42-12.47-5.42-12.47l19.43-17.33,14.84-17.83-16.8-33.89c1.35,15.15-12,22.27-22.2,32-8.11,7.69-12.25,11.62-16.51,18-2.08,3.11-5.68,8.38-.56,21.87,2.56,6.76,11.61,27.45,15.23,34.2A156.15,156.15,0,0,1,146,319c1,2.95,1.93,5.89,2.94,8.84,1,2.8,1.79,5.62,2.57,8.47.57,2.08.91,4.21,1.35,6.29s.86,2.74,2,3.1c2.52.81,5.32-.81,7-2.39,4-3.82,4.68-9.6,3-15.74C162.54,319.43,158.51,308.18,158.51,308.18Z" style="fill:#ffbda7"></path><path d="M162.86,327c.19-1.05.45-2.19.76-3.4l0,0c-.12-.4-.24-.81-.37-1.21,0-.08,0-.16-.07-.24-.12-.4-.25-.8-.37-1.2l-.08-.24-.39-1.23,0-.06-.39-1.2-.06-.17c-.13-.41-.26-.8-.39-1.2l-.05-.15c-.13-.39-.26-.78-.38-1.16l0-.11-.34-1-.06-.17c-.12-.34-.23-.68-.34-1a1.09,1.09,0,0,1-.05-.17c-.12-.32-.23-.64-.33-.95l0-.05-.31-.92h0l-.28-.8,0-.08c-.08-.23-.16-.45-.22-.64l0-.09c-.13-.38-.24-.69-.32-.91l0-.09a1,1,0,0,0-.07-.19l0-.12s-.52-.68-.94-1.29a26.56,26.56,0,0,1-2.38-6.84c-.34-1.58-.95-4.61-1.65-8-.39-2-.77-4.32-1.19-6.59-.28-1.52-.58-3-.9-4.5a42.55,42.55,0,0,0-1.71-5.94c-4.39-11.2-5.42-12.47-5.42-12.47l19.43-17.33L171.37,232l-5-2.86L153.47,247.5s-9.77,8.15-11.75,13.62-1.76,15.78-1.4,24.42c.17,4,.7,12.82,1.16,21.86,2.12,5,3.86,9.8,4.47,11.61,1,2.95,1.93,5.89,2.94,8.84,1,2.8,1.79,5.62,2.57,8.47.57,2.08.91,4.21,1.35,6.29.05.23.09.43.14.62s.05.18.07.26l.06.22a5.94,5.94,0,0,0,.21.6h0c.82.55,1.63,1.09,2.41,1.59a4.29,4.29,0,0,0,.8,0h.08a6.49,6.49,0,0,0,.77-.11l.1,0c.25-.06.51-.14.76-.22l.06,0a10,10,0,0,0,1.48-.7l.08,0c.22-.13.43-.27.64-.41l.1-.08c.2-.14.4-.29.58-.44l.08-.06.54-.48a2.39,2.39,0,0,0,.22-.23A91.83,91.83,0,0,1,162.86,327Z" style="fill:#f0997a"></path><path d="M159.63,331.81c1.19.29.91,1.37,1.72,3.13.36.8,1.14,1.73,1.93,3.11a9.81,9.81,0,0,1,1.13,3.29,6.58,6.58,0,0,1-1.1,4.45,18.28,18.28,0,0,0-3.19,7.77c-.48,2.35-.39,5.26-.56,9.08-.2,4.6-1.13,8.67-4.94,12.31a18.13,18.13,0,0,1-7,4c-2.86.91-7,1.61-10,.92-2.14-.48-5-1.85-5.69-4.39s2.14-4.93,5.54-12.4c.9-2,1.58-4,2.42-6,.74-1.77,2.42-3.21,3.63-4.7C149,345.62,154.35,338.74,159.63,331.81Z" style="fill:#455a64"></path><path d="M138.15,363.22c.6-2.14,1.31-4.25,1.78-6.45.65-3,1.25-6,1.71-9,.48-3.2,1.05-6.36,1.54-9.56a158.29,158.29,0,0,0,.93-16.67c0-.62-1.56-38.65-1.09-46.58.4-6.65-.12-11.34,2.25-15.05,8.12-12.74,25.54-31.45,25.54-31.45s-10-9.83-9-34.94h42.9c.2,6.59,10.55,17.89,8.93,32.5-1,9.34-4,16.07-17.14,28.56-9.77,9.3-24.74,20.24-28.41,24-2.12,2.18-1,4.79-.39,11.12a58.15,58.15,0,0,1-.89,13.68c-1,5.87-2.2,8.35-5.55,20.12-1.09,4-1.7,7.68-1.52,9.12.1.76.25,1.64.25,1.64s-1.7,12.3-3.56,20.9c-1.4,6.46-4.77,11.48-10.34,13.06-2.3.65-5.66.81-7.59-1.16C137.63,366.16,137.53,365.46,138.15,363.22Z" style="fill:#ffbda7"></path><path d="M161.58,218.17s1.66,8.16,8.62,11.08l-1.56,1.89S161.58,227.86,161.58,218.17Z" style="fill:#f0997a"></path><path d="M161.5,196.84c-.46,3,2.41,5.15-13.47,16.71S128,232.12,125,236.43s-1.86,6.8-1.86,6.8l2.5-3.41a10.3,10.3,0,0,1,4.52-1.47,9.37,9.37,0,0,1,6.24,1.47c1.91,1.26,4.14,4.65,7.06,7.74,3.66,3.88,9,4,13.86,4.88,5.34,1,8.21,4.05,10.11,9.08.8,2.11,1,4.08,2.3,6a16,16,0,0,0,5.55,4.72c4.66,2.68,10.32,2.8,15.16,5.17,4,2,7,4.84,10.59,7.35a16.28,16.28,0,0,0,14.29,2.36c1-.31,12.31-5.35,11.56-6.67-3.66-6.49-10.65-30.66-8.31-42.61s-7-29.51-12.86-40.09Z" style="fill:#BA68C8"></path><path d="M161.5,196.84c-.46,3,2.41,5.15-13.47,16.71S128,232.12,125,236.43s-1.86,6.8-1.86,6.8l2.5-3.41a10.3,10.3,0,0,1,4.52-1.47,9.37,9.37,0,0,1,6.24,1.47c1.91,1.26,4.14,4.65,7.06,7.74,3.66,3.88,9,4,13.86,4.88,5.34,1,8.21,4.05,10.11,9.08.8,2.11,1,4.08,2.3,6a16,16,0,0,0,5.55,4.72c4.66,2.68,10.32,2.8,15.16,5.17,4,2,7,4.84,10.59,7.35a16.28,16.28,0,0,0,14.29,2.36c1-.31,12.31-5.35,11.56-6.67-3.66-6.49-10.65-30.66-8.31-42.61s-7-29.51-12.86-40.09Z" style="fill:#fff;opacity:0.25"></path><path d="M226.92,280.43a35.31,35.31,0,0,1-1.91-4.22c-.27-.71-.55-1.47-.83-2.26s-.57-1.65-.85-2.53c-.57-1.76-1.13-3.66-1.67-5.65-.27-1-.53-2-.78-3-.37-1.55-.72-3.13-1-4.71-.43-2.12-.79-4.25-1.07-6.33s-.48-4.12-.57-6.05a33.27,33.27,0,0,1,.41-7.82c2-10.08-4.35-24.16-9.91-34.67-1-2-2-3.77-2.95-5.42h0l-7.11-.15a63.74,63.74,0,0,0,2.88,8.08,44.14,44.14,0,0,1,3.3,18.05c0,6.94-1.32,13.81-1.32,20.77,0,7.51,2.91,14.54,3.81,22,.34,2.83.69,6.46-2.09,8.23-2.95,1.88-5.65-.55-8.39-1.55-5.53-2-9.53-.94-15.18-.65a30.22,30.22,0,0,1-6.4-.28l.07,0c.29.17.59.33.89.47a29.11,29.11,0,0,0,5.65,2l1.95.5a33.92,33.92,0,0,1,6.67,2.22,28.88,28.88,0,0,1,2.83,1.62c1.34.88,2.61,1.84,3.88,2.82s2.53,2,3.88,2.91a16.23,16.23,0,0,0,14.29,2.36,69.09,69.09,0,0,0,6.45-3l.53-.27c.7-.37,1.38-.74,2-1.1l.45-.27.8-.52C226.54,281.32,227.11,280.76,226.92,280.43Z" style="fill:#BA68C8;opacity:0.5"></path><g style="opacity:0.5"><path d="M216,278a37.62,37.62,0,0,1-12.21-13.25,61.74,61.74,0,0,1-6.12-17.11,116.23,116.23,0,0,1-2.21-18,167,167,0,0,1,.2-18c.42,6,.81,12,1.36,17.93a162.63,162.63,0,0,0,2.6,17.66A72,72,0,0,0,205.2,264,44.52,44.52,0,0,0,216,278Z" style="fill:#BA68C8"></path><path d="M188.33,268.39c-2.72-3.84-4-8.57-4.63-13.23a65.91,65.91,0,0,1-.11-14.11,105.87,105.87,0,0,1,2.31-13.85,115.69,115.69,0,0,1,4-13.43c-.79,4.61-1.69,9.16-2.46,13.73s-1.43,9.15-1.85,13.74a89.23,89.23,0,0,0-.33,13.77A37.09,37.09,0,0,0,188.33,268.39Z" style="fill:#BA68C8"></path><path d="M146.34,237.71a41.75,41.75,0,0,1,5.54-8.16c2.11-2.53,4.45-4.84,6.72-7.15a58,58,0,0,0,6.34-7.19,24.68,24.68,0,0,0,3.94-8.7,18.15,18.15,0,0,1-2.62,9.54A39.86,39.86,0,0,1,160,223.8l-7,6.8C150.72,232.88,148.51,235.24,146.34,237.71Z" style="fill:#BA68C8"></path><path d="M178.59,209.32a28.07,28.07,0,0,1-1.6,10.61,78.86,78.86,0,0,1-4.19,9.86c-1.58,3.18-3.19,6.3-4.54,9.51a26.46,26.46,0,0,0-2.37,10.14c-.85-3.51-.2-7.27.9-10.67a75.75,75.75,0,0,1,4.22-9.86c1.58-3.17,3.15-6.31,4.52-9.53A44.73,44.73,0,0,0,178.59,209.32Z" style="fill:#BA68C8"></path></g></g><g id="freepik--Top--inject-42"><path d="M140.53,113a25.33,25.33,0,0,1,3.12-3.09c1.59-1.43,4.1-2.93,5.26-4s2.44-2.79,1.66-3.62-2.3.15-4.58,1.48a39.68,39.68,0,0,0-4.42,2.92c-1,.76-3.83,3.25-4.16,3.3-.67.11-.47-.61,1.24-2.25a42.81,42.81,0,0,1,4.76-3.69c1.47-1.08,2.32-2.26,1.84-2.88s-1-.72-2.47,0-2.75,1.49-2.75,1.49a5.81,5.81,0,0,0-3.08-.08,25.17,25.17,0,0,0-5.37,3.32,37.73,37.73,0,0,0-5.57,5.36,21.63,21.63,0,0,0-3.79,6.13,27.64,27.64,0,0,0-1.36,5.81C120.59,125,137.45,117.3,140.53,113Z" style="fill:#ffbda7"></path><path d="M146.45,107.23a27,27,0,0,0-5.3,4.31,20.75,20.75,0,0,1-4.2,3.24l1.3.22a9.24,9.24,0,0,0,2.28-2,25.33,25.33,0,0,1,3.12-3.09c1.59-1.43,4.1-2.93,5.26-4a7.39,7.39,0,0,0,1.73-2.25h0A21.14,21.14,0,0,1,146.45,107.23Z" style="fill:#f0997a"></path><path d="M140,102.59a.93.93,0,0,1,.5.32.59.59,0,0,1,.13.29.86.86,0,0,1,0,.16.44.44,0,0,1,0,.16,1.44,1.44,0,0,1-.28.55,1.67,1.67,0,0,1-.46.42,5.23,5.23,0,0,1-1.13.43c-.38.11-.76.21-1.11.35a1.84,1.84,0,0,0-.48.26c-.15.11-.3.24-.45.37s-.6.5-.89.76c-.59.52-1.18,1-1.74,1.59a13.89,13.89,0,0,1,1.57-1.77c.28-.28.57-.55.86-.81l.46-.39a2.46,2.46,0,0,1,.55-.3,10,10,0,0,1,1.15-.34,6,6,0,0,0,1.08-.36,1.41,1.41,0,0,0,.43-.34,1.24,1.24,0,0,0,.29-.46.62.62,0,0,0,0-.53A1,1,0,0,0,140,102.59Z" style="fill:#f0997a"></path><path d="M141.67,104.81c-5.9,3.4-3.55,10.63,1.79,14.51s18.51,5,32.88,2.44c8.21-1.46,18.57-5.4,26.76-9.2,6.16-2.86-26-14.24-26-14.24S146.43,102.06,141.67,104.81Z" style="fill:#BA68C8"></path><path d="M141.67,104.81c-5.9,3.4-3.55,10.63,1.79,14.51s18.51,5,32.88,2.44c8.21-1.46,18.57-5.4,26.76-9.2,6.16-2.86-26-14.24-26-14.24S146.43,102.06,141.67,104.81Z" style="opacity:0.35000000000000003"></path><path d="M135,159.26c1-4.47-1.3-18.46-2-24-.84-6.74-1.46-8.78,1.94-10.82a18.5,18.5,0,0,0,5.18-4.39c2.22-2.5,4.64-5,6.34-6s1.89-1.49,1.2-2.11c-1.22-1.09-2.25-1.3-5.35,0-2.7,1.17-4.17,2.59-6.26,2.93s-14,2.07-14.61,5a205.17,205.17,0,0,0-3.19,23.26,79.28,79.28,0,0,0,.15,15c.32,3.64,1.84,9.65,5,9.14C126.34,167,135,159.26,135,159.26Z" style="fill:#ffbda7"></path><path d="M136.11,115.45c-4.78.17-9.48,5.44-10.31,7.54C126.65,119.9,130.12,114.83,136.11,115.45Z" style="fill:#f0997a"></path><path id="freepik--Hair--inject-42" d="M217.37,141.2a9.18,9.18,0,0,0,.23-1c.82-5-1.75-10.18-5.72-13.42-3.56-2.91-7.4-5.2-10.43-8.72L212.21,113c6.52-2.64,7-10.62,6-14.92-2.39-9.6-12.17-14.11-18.41-15.1-11.83-1.87-18,.56-19.81,6.52A5.83,5.83,0,0,0,175.37,91a19.24,19.24,0,0,0-2.85,5.62c-1.05,2.79-3.49,3.36-4.24,6.23-.83,3.17-1.84,5.22-4.88,7.19-2.51,1.64-5.44,2.59-8,4.2-2.17,1.37-4.7,3.52-5.55,6-1.21,3.52.69,5.4,2,8.38a16.15,16.15,0,0,0-6.45,15c.79,5.16,4,10.57,9.31,12.06,5,1.4,10,1.84,14.71-.78a22.94,22.94,0,0,1,2,2.84,13.16,13.16,0,0,0,3.19,3.17,19.73,19.73,0,0,0,2.75,1.6c7.2,3.18,14.77,2.6,22-.43,2.3-1,4.62-2.2,6-4.26,1.69-2.51,1.65-5.75,1.56-8.76C211.67,149.5,216.11,145.76,217.37,141.2Z" style="fill:#37474f"></path><path d="M231.64,175.09a95.18,95.18,0,0,1,12.56-12.83,75.5,75.5,0,0,1,13-9.48c2.25-1.22,5.68-1.86,8.56-2.4,1.41-.27,1,.82,2.42.86,2,0,4.17,1.54,5.62,2.83a31.26,31.26,0,0,1,5.81,8c.7,1.24,1.06,2.81-.16,2.82a8.6,8.6,0,0,1-3.39-.55,1.63,1.63,0,0,0-1.47-.14,7.07,7.07,0,0,1-4.93-.53c-1.26-.55-2.71-1.29-4-.59a10,10,0,0,0-1.44,1.08,41.64,41.64,0,0,0-3.11,3c-2.9,3-5.65,6.12-8.4,9.25-5.31,6-10.39,12.63-16.46,17.94a13.93,13.93,0,0,1-1.27,1c-8.08,5.63-11.55,3.3-15.51-2.45S209.75,175,209.75,175l-49,.73c-11.94-9.71-3-20.36-.86-24s10.72-13.68,10.72-13.68a29.73,29.73,0,0,0,5.58-.85c2.09-.55,3.23-1.54,3.4-5l17.65,2.61c-.37,3.5,3.55,3.93,6.44,4.66,11,2.77,13.93,3.36,16.63,9S230.16,168,231.64,175.09Z" style="fill:#ffbda7"></path><path d="M239.8,256l-.15-3.91c-.06-1.3-.1-2.59-.24-3.88-.07-.64-.12-1.3-.22-1.93a7.6,7.6,0,0,0-.62-1.81,18.44,18.44,0,0,0-2.08-3.27,14.44,14.44,0,0,1,2.3,3.17,6.69,6.69,0,0,1,.68,1.86c.11.66.18,1.29.25,1.95A58.3,58.3,0,0,1,239.8,256Z" style="fill:#f0997a"></path><path d="M174.8,168.7c-.86-4.26,2-10.06,4.83-12.08a12.53,12.53,0,0,0-7.86,12.08C172.08,173.66,174.8,168.7,174.8,168.7Z" style="fill:#f0997a"></path><path d="M170,137.71c-7.59-.62-11.07.37-17.83,3.22-6.52,2.74-31.85,13.29-31.85,13.29-2.51,9.05-.82,16.48,10.26,13.71a123.78,123.78,0,0,0,30-12.08Z" style="fill:#ffbda7"></path><path d="M134.7,148.24c.22,2.65-.09,8.77-2.47,12.21,3.84-2.22,4.61-8.66,4.12-12.89Z" style="fill:#f0997a"></path><path d="M156.77,154.66A132.46,132.46,0,0,1,170,137.71h3.8c-5.89,5.67-9.5,14.77-9.5,14.77,2.73,1.72,7.85,6.84,8.89,15.83,4.13-9.1,13.12-10.57,21-10.55a65.76,65.76,0,0,1,9.43-18.3l3.11.79s-3.48,9.56-2.45,18.07A55.07,55.07,0,0,0,209.75,175l.81,1.81-5.87,16.68s-3.78,7.67-21.48,7.44-21.42-7.44-21.42-7.44-.78-16.29-2.41-18.67A15.52,15.52,0,0,1,156.77,154.66Z" style="fill:#BA68C8"></path><path d="M156.77,154.66A132.46,132.46,0,0,1,170,137.71h3.8c-5.89,5.67-9.5,14.77-9.5,14.77,2.73,1.72,7.85,6.84,8.89,15.83,4.13-9.1,13.12-10.57,21-10.55a65.76,65.76,0,0,1,9.43-18.3l3.11.79s-3.48,9.56-2.45,18.07A55.07,55.07,0,0,0,209.75,175l.81,1.81-5.87,16.68s-3.78,7.67-21.48,7.44-21.42-7.44-21.42-7.44-.78-16.29-2.41-18.67A15.52,15.52,0,0,1,156.77,154.66Z" style="fill:#fff;opacity:0.25"></path><path d="M204.69,193.47l5.87-16.68-.81-1.81v0l-.08-.15,0-.06a56.06,56.06,0,0,1-2.51-5.76c-.23.58-.48,1.15-.72,1.72-2.12,4.94-5.27,9.33-7.1,14.4a20.13,20.13,0,0,0-.48,13.12C203.39,196.08,204.69,193.47,204.69,193.47Z" style="fill:#BA68C8;opacity:0.5"></path><path d="M205.75,190s-1.21,2.69,0,7.72c-2.7,4.05-12.62,7-25.61,6.18s-18.64-7.07-18.64-7.07.12-6.31,0-8.1C170.81,198.53,196.64,199.08,205.75,190Z" style="fill:#BA68C8"></path><path d="M205.75,190s-1.21,2.69,0,7.72c-2.7,4.05-12.62,7-25.61,6.18s-18.64-7.07-18.64-7.07.12-6.31,0-8.1C170.81,198.53,196.64,199.08,205.75,190Z" style="opacity:0.45"></path><g id="freepik--Head--inject-42"><path d="M178.1,120a6.14,6.14,0,0,1-5.15-2.83c-2.42-3.52-2.22-6.73-.58-8.65,1.35-1.57,4.22-2.3,5.95-.85s1.76,2.58,2.33,4.1,3.54,1.83,5.08-3.79c1.43-5.24,2.65-10.57,6-12,4.84-2.17,7.59.06,9.27,2.28a5,5,0,0,1,7.5-1.59c2.45,1.78,4.34,4.82,3.8,15.08-.54,10.45-3.06,15.59-6,17.78-1.83,1.35-4.07,2.43-8.74,2.19l-.46,5.59s-15.57,7.31-26,17.8c.39-7.4,4.18-13.15,8.34-19.89l1.14-16.47S180.18,119.9,178.1,120Z" style="fill:#ffbda7"></path><path d="M196.06,111a1.78,1.78,0,0,1-2.35.87,1.74,1.74,0,0,1-.8-2.35,1.74,1.74,0,1,1,3.15,1.48Z" style="fill:#263238"></path><path d="M194.64,108.49c-1.09-.12-1.94,1.23-2.9.51a1.59,1.59,0,0,0,2,1.14C194.25,110,194.64,108.49,194.64,108.49Z" style="fill:#263238"></path><path d="M210.25,107.79l-3.41-2.37a2,2,0,0,1,2.85-.55A2.14,2.14,0,0,1,210.25,107.79Z" style="fill:#263238"></path><path d="M205.33,111.48a1.78,1.78,0,0,0,2.08,1.39,1.76,1.76,0,0,0,1.33-2.11,1.78,1.78,0,0,0-2.08-1.39A1.76,1.76,0,0,0,205.33,111.48Z" style="fill:#263238"></path><path d="M207.29,109.36c1.09.13,1.6,1.63,2.7,1.15a1.58,1.58,0,0,1-2.19.66C207.33,110.88,207.29,109.36,207.29,109.36Z" style="fill:#263238"></path><path d="M195.52,104.69l-4.08,1.78a2.11,2.11,0,0,1,1.06-2.89A2.36,2.36,0,0,1,195.52,104.69Z" style="fill:#263238"></path><path d="M195.19,98.33a9.29,9.29,0,0,0-1.55,3.81c-.3,1.38-.17,3.69-1.77,5.5a6.31,6.31,0,0,1-4.57,2.27,6.88,6.88,0,0,1-3.29-.68c-.62-.36-1.9-.94-1.91-3.68a4.19,4.19,0,0,0,1.25,1.08,4.31,4.31,0,0,0,1.19.41,3.74,3.74,0,0,0,3.32-1.39c1.43-1.69,1.38-4.24,1.66-6.34.47-3.45,2.07-5.37,4.62-6.43,3-1.25,7.28.36,6.82,5.32C199,95.76,196.09,97.13,195.19,98.33Z" style="fill:#37474f"></path><path d="M194.38,119l5.53,2.42a3,3,0,0,1-4.25,1.38A2.79,2.79,0,0,1,194.38,119Z" style="fill:#b16668"></path><path d="M197.29,123.17a3.16,3.16,0,0,0-2.88-3.1,2.81,2.81,0,0,0-.29,0,2.62,2.62,0,0,0,1.54,2.75A3.44,3.44,0,0,0,197.29,123.17Z" style="fill:#f0997a"></path><polygon points="200.12 107.41 199.83 117.71 205.72 116.39 200.12 107.41" style="fill:#f0997a"></polygon><path d="M197.52,131.66a17,17,0,0,1-10.67-4.43,20.09,20.09,0,0,1-4-6.38,15.6,15.6,0,0,0,3,7.67c3.68,4.66,11.46,5.37,11.46,5.37Z" style="fill:#f0997a"></path></g><path d="M172.52,95.54c0-3.59,3.73-12.89,14.7-15.33,10.76-2.39,16.12,1.05,19.24,4.56C203,91.2,181.75,98.88,172.52,95.54Z" style="fill:#BA68C8"></path><path d="M172.52,95.54c0-3.59,3.73-12.89,14.7-15.33,10.76-2.39,16.12,1.05,19.24,4.56C203,91.2,181.75,98.88,172.52,95.54Z" style="fill:#fff;opacity:0.2"></path><path d="M205.71,85.56c-7,9.42-17.22,16.8-28.94,18.94a51.09,51.09,0,0,1-16.17.68c-5.66-.48-13.45-1.86-18.93-.37,4.57-4.87,19.49-2.22,30.85-9.27C172.52,95.54,195.53,93.88,205.71,85.56Z" style="fill:#BA68C8"></path><path d="M182.22,103.1c12.91-6.53,18.55-12,26.5-20.78,8.44-9.35,18.87-18.13,24.8-7.13,1.82,3.38,1.86,10.88-1.64,17.89s-8.49,11-14.29,14.33c0,0,4.71-14.93-7.83-14.93C205.41,91.5,194.92,98.91,182.22,103.1Z" style="fill:#BA68C8"></path><path d="M182.22,103.1c12.91-6.53,18.55-12,26.5-20.78,8.44-9.35,18.87-18.13,24.8-7.13,1.82,3.38,1.86,10.88-1.64,17.89s-8.49,11-14.29,14.33c0,0,4.71-14.93-7.83-14.93C205.41,91.5,194.92,98.91,182.22,103.1Z" style="opacity:0.35000000000000003"></path></g></g><g id="freepik--leg--inject-42"><polygon points="218.24 386.67 224.44 386.85 224.17 382.5 219.6 384.22 218.24 386.67"></polygon><path d="M216.65,374.7s-1.65,3.41-2.15,4.5,2.8,6.43,3.74,7.47l1.36-2.45a22,22,0,0,1,1,5.28c.26,1.94.19,5.39,1.85,8.43,2.46,4.52,7.59,8.4,13.37,11s9.74,2.55,11.93,2,3.32-1.86,3.52-3.52S216.65,374.7,216.65,374.7Z" style="fill:#263238"></path><path d="M237.24,369.19l1-2c1.09.41-.11,3.39.42,6.62a56.48,56.48,0,0,0,3.93,13.94c3.74,7.86,7.65,13.45,9.31,17,2.22,4.72-6.15,7.35-15.52,2.9-4.64-2.22-12.11-8.07-13.33-11.85s-.89-8.76-2-11.58-4.3-6.54-4.47-9.51c-.09-1.62,1.55-4.66,3-7.2,1.38-2.34,3-6.1,4.28-5.22l-.43,1.31c.13,1.32.72,3.65,4.29,5.87C229.61,370.56,235.25,373.07,237.24,369.19Z" style="fill:#455a64"></path><path d="M230.87,370.82c1.89.59,4.11.79,5.55-.55l.06,0a5,5,0,0,0-.36,4.41c.89,2.71,5.92,21.27,5.92,21.27s-5.3-15.78-6.33-18.77c-1.53-4.41-2.28-5.16-4.85-6.32Z" style="opacity:0.15"></path><path d="M231.73,375.54a.64.64,0,1,1-.26-.86A.64.64,0,0,1,231.73,375.54Z" style="opacity:0.15"></path><path d="M233.27,379.83a.63.63,0,0,1-.85.25.63.63,0,1,1,.85-.25Z" style="opacity:0.15"></path><path d="M234.82,384.11a.63.63,0,0,1-.86.25.63.63,0,0,1,.61-1.11A.63.63,0,0,1,234.82,384.11Z" style="opacity:0.15"></path><path d="M236.37,388.39a.63.63,0,0,1-.86.25.62.62,0,0,1-.25-.85.63.63,0,1,1,1.11.6Z" style="opacity:0.15"></path><path d="M237.92,392.67a.64.64,0,0,1-.86.26.63.63,0,0,1-.25-.86.63.63,0,0,1,1.11.6Z" style="opacity:0.15"></path><path d="M231.05,375.47a.37.37,0,0,1-.12-.13.27.27,0,0,1,.14-.34c.17-.06,4.1-1.63,7.7.09h0a.25.25,0,0,1,.11.33.25.25,0,0,1-.34.12c-3.4-1.62-7.25-.09-7.28-.07A.33.33,0,0,1,231.05,375.47Z" style="fill:#263238"></path><path d="M232.61,379.74a.25.25,0,0,1-.12-.13.25.25,0,0,1,.14-.33,10.34,10.34,0,0,1,7.69.09h0a.26.26,0,0,1,.11.34.26.26,0,0,1-.34.12c-3.39-1.63-7.24-.1-7.28-.08A.26.26,0,0,1,232.61,379.74Z" style="fill:#263238"></path><path d="M234.15,384a.22.22,0,0,1-.12-.13.25.25,0,0,1,.14-.33,10.43,10.43,0,0,1,7.7.09h0a.26.26,0,0,1,.12.34.25.25,0,0,1-.34.12c-3.4-1.62-7.25-.09-7.29-.08A.22.22,0,0,1,234.15,384Z" style="fill:#263238"></path><path d="M235.7,388.32a.28.28,0,0,1-.12-.14.25.25,0,0,1,.14-.33c.16-.06,4.09-1.63,7.69.09h0a.26.26,0,0,1,.11.34.25.25,0,0,1-.34.12c-3.39-1.62-7.24-.09-7.28-.08A.26.26,0,0,1,235.7,388.32Z" style="fill:#263238"></path><path d="M237.25,392.6a.22.22,0,0,1-.12-.13.25.25,0,0,1,.14-.33,10.34,10.34,0,0,1,7.69.09h0a.26.26,0,0,1,.11.34.26.26,0,0,1-.34.12c-3.39-1.63-7.24-.1-7.28-.08A.26.26,0,0,1,237.25,392.6Z" style="fill:#263238"></path><path d="M268.53,303.11c-3.56-11.69-14.14-40.65-14.14-40.65a28.1,28.1,0,0,0,6.51-6.07c3.8-4.84,6.76-10.46,7.78-22.39l-58.12-9.89a157.91,157.91,0,0,0-1.36,22.12c0,12.46,4,18,12.43,34.84,6.62,13.21,12.9,25.48,16.9,32.53-4.95,6.57-7,13.22-8.71,20.5-1.61,7-9,31.32-9,31.32s4.63,15.85,18.72,10.85c0,0,20.62-39.82,24.86-47.65C270.35,317.68,271.78,313.75,268.53,303.11Z" style="fill:#37474f"></path><path d="M254.39,262.46a22.28,22.28,0,0,0-16.25-12.18,21.64,21.64,0,0,1,10.53,3.27c6.49,3.89,7.83,7.35,7.83,7.35C256.06,262.62,255.18,262.6,254.39,262.46Z" style="fill:#263238"></path></g><g id="freepik--Chest--inject-42"><path d="M240.06,156.37a100.41,100.41,0,0,0-12.27,4.34S220.45,169,216.05,184c-3.07,10.47-6,32.74-7,55.84,8.67,11.22,44.1,12.86,62.27-4.21,0,0-2.28-12.13,2.79-29.08,6.4-21.34,9-31.74,7.58-38.48-1.31-6.09-3.09-9.13-4.68-10.37C276,157,253.19,152.93,240.06,156.37Z" style="fill:#455a64"></path><g id="freepik--head--inject-42"><path d="M232,123.54c-1.8-5.47,1.1-12.22,4.14-15.24,4.4-4.35,10.75-5.81,20-4.37,7,1.1,13.68,4.69,14.32,12,6.71,2.85,5.42,11.15,3.62,15.12-3.65,8.07-9.73,14.14-11.93,19.24Z" style="fill:#263238"></path><path d="M230.6,143.25c.74,4.13,2.33,7,6,8a40.08,40.08,0,0,0,5.89.77l-.11,4.64c3.22,6.88,13.53,15.66,20.18,15.12,1.62-3.23,1.79-11-.33-16.09l1.31-13s1.65,2.87,5.63.77a8.22,8.22,0,0,0,3.49-9.79c-1.49-4.1-5.37-2.82-6.63-1.74s-2.8,3.2-3.73,2.8a3.5,3.5,0,0,1-2.09-2.58,21.11,21.11,0,0,1-.5-7.72,6.87,6.87,0,0,1-2.7-2.52c-.74-1.5-.55-3.41-2.64-6-3.19-3.89-16.48-5.48-20.1-.77-1.78,2.89-3.06,11.1-3.55,15.64C230.13,136.25,230,139.79,230.6,143.25Z" style="fill:#ffa8a7"></path><path d="M242.48,152c4.14.16,12.56-1,15-3.11s3.8-6.7,3.8-6.7-.89,5.91-2.84,8.37-6.36,3.19-9,3.6a46.86,46.86,0,0,1-6.9.23Z" style="fill:#f28f8f"></path><path d="M248.05,129.28a1.73,1.73,0,1,0,1.87-1.65A1.75,1.75,0,0,0,248.05,129.28Z" style="fill:#263238"></path><path d="M248.57,140l-7.12,1.53a3.58,3.58,0,0,0,4.25,2.92A3.81,3.81,0,0,0,248.57,140Z" style="fill:#b16668"></path><path d="M247.79,141.51a3.3,3.3,0,0,0-3.23,2.93,3.66,3.66,0,0,0,1.14,0,3.77,3.77,0,0,0,2.8-2.75A3.43,3.43,0,0,0,247.79,141.51Z" style="fill:#f28f8f"></path><path d="M234,127.26a1.74,1.74,0,1,0,1.89-1.66A1.78,1.78,0,0,0,234,127.26Z" style="fill:#263238"></path><path d="M233.31,123.5l4.75-.94a2.38,2.38,0,0,0-2.79-2A2.53,2.53,0,0,0,233.31,123.5Z" style="fill:#263238"></path><path d="M253.62,126.45l-4.07-2.62a2.38,2.38,0,0,1,3.33-.82A2.53,2.53,0,0,1,253.62,126.45Z" style="fill:#263238"></path><path d="M244,124.88l-1.93,12.23-5.37-2.21C237.88,131.64,240.93,128,244,124.88Z" style="fill:#f28f8f"></path></g></g><path id="freepik--Hand--inject-42" d="M266.26,156.49a7.68,7.68,0,0,0-3.15-1l1.06-4.78c2-.46,3.22-.48,4.81-.72a38.42,38.42,0,0,1,5.46-.45,2.21,2.21,0,0,1,1.42.45,18.56,18.56,0,0,1,2.26,1.82c.69.6,1.38,1.19,2.06,1.81.38.33.75.66,1.14,1,.21.19.46.37.65.58a4.6,4.6,0,0,1,.73,1.53c.47,1.42,1,2.81,1.54,4.2.12.32.28.67.1,1a1.5,1.5,0,0,1-.82.5,2.47,2.47,0,0,1-1.15.09c-.61-.1-1-.6-1.49-.93s-.15-.18-.47,0a3.66,3.66,0,0,1-3.7.21c-.57-.25-.77-.33-1.24.05a2.61,2.61,0,0,1-2.48.65,6.16,6.16,0,0,1-3-2c-.78-.89-1.49-1.8-2.33-2.63A9.09,9.09,0,0,0,266.26,156.49Z" style="fill:#ffbda7"></path><path d="M347.67,221.68l-3.16-5.45,13.35-7.7h0a1.53,1.53,0,0,1,1.59.14,4.93,4.93,0,0,1,2.23,3.86,1.59,1.59,0,0,1-.62,1.42h0l0,0h0Z" style="fill:#BA68C8"></path><path d="M348.31,220.25c0,1.42-1,2-2.22,1.28a4.93,4.93,0,0,1-2.23-3.86c0-1.42,1-2,2.23-1.28A4.9,4.9,0,0,1,348.31,220.25Z" style="fill:#BA68C8"></path><path d="M348.31,220.25c0,1.42-1,2-2.22,1.28a4.93,4.93,0,0,1-2.23-3.86c0-1.42,1-2,2.23-1.28A4.9,4.9,0,0,1,348.31,220.25Z" style="opacity:0.4"></path><path d="M346.84,219.78a.84.84,0,0,1-.15.55l-.36.23-19.24,11.09c-3.74,2.15-5,7.32-5.71,12.77-.05.38-.1.77-.14,1.15-.37,3.21-.71,6.15-1,9-.54,4.52-1,8.91-1.59,13.92-.84,7.47-3.93,10.42-10.51,14.22l-1.53-2.64c6.14-3.54,8.31-5.76,9-11.92.55-5,1.07-9.39,1.59-13.93.29-2.46.58-5,.87-7.64.06-.46.11-.92.17-1.39.09-.84.2-1.68.32-2.52.85-5.74,2.52-11.11,7-13.72l.31-.18,19.25-11.11a.87.87,0,0,1,.61.14A2.48,2.48,0,0,1,346.84,219.78Z" style="fill:#263238"></path><path d="M314.83,282.3a3.16,3.16,0,0,0-1.86-2.48l-7.78-4.5L297.13,280v4.65l7.79,4.5a9.25,9.25,0,0,0,8.32.15,2.67,2.67,0,0,0,1.58-2.33S314.86,283.15,314.83,282.3Z" style="fill:#BA68C8"></path><path d="M305.19,275.32l7.78,4.5c2.37,1.37,2.49,3.52.27,4.8a9.21,9.21,0,0,1-8.32-.15l-7.79-4.5Z" style="fill:#BA68C8"></path><path d="M305.19,275.32l7.78,4.5c2.37,1.37,2.49,3.52.27,4.8a9.21,9.21,0,0,1-8.32-.15l-7.79-4.5Z" style="fill:#fff;opacity:0.5"></path><path d="M302,285.78a.78.78,0,0,1-.21.61l-.23.14-1.28.68c-2.4,1.3-4.31,2.07-5.91,2.07a3.75,3.75,0,0,1-1.8-.41,3.51,3.51,0,0,1-.63-.38c-1.5-1.15-2-3.27-2.18-5.07-.56-4.37-1.07-8.18-1.59-12.1-.34-2.49-.68-5-1-7.81-.54-4.05-1.3-6.34-2.28-6.81-.53-.28-1.42.1-2.06.48L261.6,269.41l-1.53-2.65,21.16-12.22c1.88-1.08,3.53-1.28,4.95-.58,2.57,1.27,3.41,5.15,3.94,9.15l1,7.79c.52,4,1,7.75,1.61,12.14.29,2.36.82,3,1.11,3.1.78.38,2.77-.49,4.39-1.33.13-.08,1.41-.76,1.53-.82s.26-.13.37-.2h0a.74.74,0,0,1,.69.09A2.44,2.44,0,0,1,302,285.78Z" style="fill:#263238"></path><path d="M253.1,275.78l-3.16-5.45,13.34-7.71h0a1.51,1.51,0,0,1,1.59.14,4.91,4.91,0,0,1,2.23,3.85,1.58,1.58,0,0,1-.62,1.42h0Z" style="fill:#BA68C8"></path><path d="M253.74,274.34c0,1.42-1,2-2.22,1.29a4.93,4.93,0,0,1-2.23-3.86c0-1.42,1-2,2.23-1.29A4.92,4.92,0,0,1,253.74,274.34Z" style="fill:#BA68C8"></path><path d="M253.74,274.34c0,1.42-1,2-2.22,1.29a4.93,4.93,0,0,1-2.23-3.86c0-1.42,1-2,2.23-1.29A4.92,4.92,0,0,1,253.74,274.34Z" style="opacity:0.4"></path><path id="freepik--hand--inject-42" d="M343.18,211.19c-.14-.38-1.59-.95-2-1.17l-2.06-1.26c-.69-.41-1.37-.83-2.05-1.25-.29-.18-1.28-.46-1.32-.84a.47.47,0,0,1,.31-.44,1.19,1.19,0,0,1,.56-.1c6,.56,10.69-1.84,16.1-2.29a5.16,5.16,0,0,1,1.71.07,5.44,5.44,0,0,1,1.85,1.1,25.67,25.67,0,0,1,2.85,2.67c1.75,1.87,3.19,2.7,3.19,4.64a34.86,34.86,0,0,1-.5,5.86c-.14.79-.39,1.69-1.13,2-.56.23-1.2,0-1.72.38s-.57.83-1,1.16c-.57.46-1.41.14-2.12.27a7.22,7.22,0,0,0-1.65.81,4.16,4.16,0,0,1-3.7.1,10.78,10.78,0,0,1-2.41-1.5h0a2.75,2.75,0,0,0,1.38-2.84,3.71,3.71,0,0,0-3.06-3.42l-1.47.74Z" style="fill:#ffa8a7"></path><g id="freepik--arm--inject-42"><path d="M224.71,236.21c5.44,5.63,22.77,21.52,24.16,24s.78,6.19,3.26,8.85L254,268s3.85,1.57,3.15,5.46l-1.75,1s2.75,2.66,4.12,2.45a11.64,11.64,0,0,0,3.2-1c1-.45,2.08-.24,3-.7a16.56,16.56,0,0,0,2-1.41c.6-.41,1.33-.27,2-.39,2.37-.4,2.71-1.3,3.18-3.28.55-2.3,1.64-3.2,1.06-5.32-.65-2.41-8-9.4-8.74-10.15-4.33-4.27-7.63-9.24-11.74-14.91-10.78-14.88-14.74-21.27-14.74-21.27s-3.07-21.53-4.08-31.7c-1.61-16.12-3-19.78-7.3-24.89-11.25,5.37-15.08,10.68-14.95,21.43.08,6.48,2.67,17.83,5.29,36.14C219.12,229.77,218.26,229.53,224.71,236.21Z" style="fill:#ffa8a7"></path><path d="M227.79,160.71c-4.2,1.95-10.76,5.2-13.84,11.11s-2.77,12.34-1.59,22.36,3.5,25.09,4.1,29.16c.46,3.11.62,5.68,4.49,9.46,2.84,2.78,8.16,8.23,8.16,8.23s.85-6.8,5.58-10.82a11.62,11.62,0,0,1,10.29-2.3l-5.93-9.59-4.36-33.53S235.23,166.9,227.79,160.71Z" style="fill:#37474f"></path><path d="M239.05,218.32c-2.37-1.85-9.41-.5-12.13,1.64,1.7-2.94,7.27-5.21,11.82-4.07Z" style="fill:#263238"></path></g><g id="freepik--Flowers--inject-42"><path d="M133.28,217.23c-2.89-6.53-8.09-6.55-16.7-2,0,0,2.19,4.87,5.94,6.18C127.21,223,132.49,220.22,133.28,217.23Z" style="fill:#37474f"></path><path d="M118.8,215.37c3.12-.06,10.75-.48,14.48,1.86l-.68-1.43S129.62,213.46,118.8,215.37Z" style="fill:#263238"></path><path d="M133.13,217.88c-7.13-.35-9.48,4.29-9.32,14,0,0,5.34.23,8.19-2.54C135.56,225.89,135.44,219.93,133.13,217.88Z" style="fill:#455a64"></path><path d="M125,230c1.35-2.81,4.4-9.81,8.16-12.1l-1.58,0S128.12,219.46,125,230Z" style="fill:#37474f"></path><path d="M139,207.17c3.82-6,.95-10.36-7.59-15,0,0-2.83,4.52-1.83,8.37C130.82,205.34,136.06,208.17,139,207.17Z" style="fill:#37474f"></path><path d="M132.49,194.1c1.78,2.56,6.37,8.67,6.5,13.07l.81-1.36S140.09,202,132.49,194.1Z" style="fill:#263238"></path><path d="M140.12,200c-5.7-4.3-4.52-9.37,1.85-16.72,0,0,4.23,3.25,4.64,7.21C147.13,195.41,143.2,199.9,140.12,200Z" style="fill:#455a64"></path><path d="M141.63,185.47c-.77,3-2.93,10.34-1.51,14.51l-1.24-1S137.28,195.55,141.63,185.47Z" style="fill:#37474f"></path><path d="M150.76,213.91l-1.48-1.28a11.79,11.79,0,0,1-4.41.78c-2.23-.11-6-3.17-5.44-5.21l1.29-4.52s-2-.38-2.23-1.39,2.82-5.66,4.07-6.25a2.5,2.5,0,0,1,1.44-.34s0-.32,1.28-.46,3-1.58,4.14-2.53,3.57-.33,4.77,1.17,2.87,2.94,3.8,2.82,4.3,1.42,4.32,3-.05,3.47-1.27,3.84a9.74,9.74,0,0,0-2.88,2.09s2.17.73,2,2.74-2.56,5.7-4.74,5.7S150.76,213.91,150.76,213.91Z" style="fill:#BA68C8"></path><path d="M150.76,213.91l-1.48-1.28a11.79,11.79,0,0,1-4.41.78c-2.23-.11-6-3.17-5.44-5.21l1.29-4.52s-2-.38-2.23-1.39,2.82-5.66,4.07-6.25a2.5,2.5,0,0,1,1.44-.34s0-.32,1.28-.46,3-1.58,4.14-2.53,3.57-.33,4.77,1.17,2.87,2.94,3.8,2.82,4.3,1.42,4.32,3-.05,3.47-1.27,3.84a9.74,9.74,0,0,0-2.88,2.09s2.17.73,2,2.74-2.56,5.7-4.74,5.7S150.76,213.91,150.76,213.91Z" style="opacity:0.5"></path><path d="M150.63,212.48a3.22,3.22,0,0,1-3.38,1.59c-2.33-.42-6-7.13-1.84-10.92a5.62,5.62,0,0,0,1.8,5.84C150.12,211.38,150.63,212.48,150.63,212.48Z" style="fill:#BA68C8"></path><path d="M150.63,212.48a3.22,3.22,0,0,1-3.38,1.59c-2.33-.42-6-7.13-1.84-10.92a5.62,5.62,0,0,0,1.8,5.84C150.12,211.38,150.63,212.48,150.63,212.48Z" style="opacity:0.4"></path><path d="M158.7,204.44a4.72,4.72,0,0,1,1.8,1.67c.57,1.06-3.26,5.63-3.26,5.63s1.36-1.47-.05-1.1-3.35,2.39-6.56,1.84l4.62-5.47S156.89,203.76,158.7,204.44Z" style="fill:#BA68C8"></path><path d="M158.7,204.44a4.72,4.72,0,0,1,1.8,1.67c.57,1.06-3.26,5.63-3.26,5.63s1.36-1.47-.05-1.1-3.35,2.39-6.56,1.84l4.62-5.47S156.89,203.76,158.7,204.44Z" style="opacity:0.4"></path><path d="M158.94,204.77s-.05.19,1.16-.34a3.46,3.46,0,0,0,1.84-2.61c0-.57-1.88-.69-2.63-1.85s-2.45-3.78-1.31-4.6a2.49,2.49,0,0,0-2.23,2.59C155.89,200.26,159,203.52,158.94,204.77Z" style="fill:#BA68C8"></path><path d="M158.94,204.77s-.05.19,1.16-.34a3.46,3.46,0,0,0,1.84-2.61c0-.57-1.88-.69-2.63-1.85s-2.45-3.78-1.31-4.6a2.49,2.49,0,0,0-2.23,2.59C155.89,200.26,159,203.52,158.94,204.77Z" style="opacity:0.4"></path><path d="M155.85,197.12s1.2.8-1.56.78-3.76-.08-3.76-.08-.23-1.38-1.25-1.25a6.82,6.82,0,0,1-4.19-1.28,4.11,4.11,0,0,0,2.82-.93c1.37-1.09,2.31-1.49,3.84.33A6.66,6.66,0,0,0,155.85,197.12Z" style="fill:#BA68C8"></path><path d="M155.85,197.12s1.2.8-1.56.78-3.76-.08-3.76-.08-.23-1.38-1.25-1.25a6.82,6.82,0,0,1-4.19-1.28,4.11,4.11,0,0,0,2.82-.93c1.37-1.09,2.31-1.49,3.84.33A6.66,6.66,0,0,0,155.85,197.12Z" style="opacity:0.4"></path><path d="M144,195.7s.4-1.38,3.34.65c1,.71-5.2,7-5.2,7S138.82,197.53,144,195.7Z" style="fill:#BA68C8"></path><path d="M144,195.7s.4-1.38,3.34.65c1,.71-5.2,7-5.2,7S138.82,197.53,144,195.7Z" style="opacity:0.4"></path><path d="M142.25,203.53a3.4,3.4,0,0,0-2.7,1c-1.49,1.26-.52,6.91,2.78,6.77-.58-4.7,2-6.93,2-6.93Z" style="fill:#BA68C8"></path><path d="M142.25,203.53a3.4,3.4,0,0,0-2.7,1c-1.49,1.26-.52,6.91,2.78,6.77-.58-4.7,2-6.93,2-6.93Z" style="opacity:0.4"></path><path d="M149.74,208.23s-1.84-.12-1.77-2.48l-.12-2.28s2-1.24,3.25-1,.53.74.53.74-1.91-.21-1.73,1.62S151.88,208.1,149.74,208.23Z" style="fill:#BA68C8"></path><path d="M148.82,198.61a5.46,5.46,0,0,0-2.84,2.66,5,5,0,0,0-.33,4.22,4.1,4.1,0,0,1,2-2.35c1.7-1,4.85-2.5,4.85-2.5S152.54,197.83,148.82,198.61Z" style="fill:#BA68C8"></path><path d="M152.12,199.69a3.28,3.28,0,0,1,2.86,2.08c.59,1.95-.46,4.17.27,5.24,0,0-1.38,1.14-1.92.08s-1.63-3.88-3.3-3.6C150,203.49,149.61,200.27,152.12,199.69Z" style="fill:#BA68C8"></path><path d="M152.28,209.63a14.43,14.43,0,0,1-2,.19,4.35,4.35,0,0,1-3.22-2.11c-.67-1-1.33-1.93-2.07-2.82-.56-.67-.49-.35-1.14-.34s-.63-.32-.53-.82a7.27,7.27,0,0,1,.64-1.46,24.25,24.25,0,0,1,1.12-3c1-1.58,3.45-3.57,5.21-1.92.52.49.65.79,1.4.8a5.52,5.52,0,0,1,3.8,1.17,5.76,5.76,0,0,1,2.22,4.4,6,6,0,0,1-.5,2.42,6.51,6.51,0,0,1-2,2.23A5.14,5.14,0,0,1,152.28,209.63Z" style="fill:#BA68C8"></path><path d="M152.28,209.63a14.43,14.43,0,0,1-2,.19,4.35,4.35,0,0,1-3.22-2.11c-.67-1-1.33-1.93-2.07-2.82-.56-.67-.49-.35-1.14-.34s-.63-.32-.53-.82a7.27,7.27,0,0,1,.64-1.46,24.25,24.25,0,0,1,1.12-3c1-1.58,3.45-3.57,5.21-1.92.52.49.65.79,1.4.8a5.52,5.52,0,0,1,3.8,1.17,5.76,5.76,0,0,1,2.22,4.4,6,6,0,0,1-.5,2.42,6.51,6.51,0,0,1-2,2.23A5.14,5.14,0,0,1,152.28,209.63Z" style="opacity:0.5"></path><path d="M155.25,207c-.23.52-3,3.09-5.89,1.68s-4-5.54-4-5.54-1.82,3.26-.24,6,4.89,4,6.67,3.05S156,209,155.25,207Z" style="fill:#BA68C8"></path><path d="M155.25,207c-.23.52-3,3.09-5.89,1.68s-4-5.54-4-5.54-1.82,3.26-.24,6,4.89,4,6.67,3.05S156,209,155.25,207Z" style="opacity:0.15"></path><path d="M148,205.75a2.11,2.11,0,0,1,2.09-2.45c2.47-.32,4.55.7,4.15-1s-1.62-3.29-3.73-2.78A4.14,4.14,0,0,0,148,205.75Z" style="fill:#BA68C8"></path><path d="M148,205.75a2.11,2.11,0,0,1,2.09-2.45c2.47-.32,4.55.7,4.15-1s-1.62-3.29-3.73-2.78A4.14,4.14,0,0,0,148,205.75Z" style="opacity:0.15"></path><path d="M149.74,208.23s2.45.57,3.67-1.26-.16-3.41-2.37-3.33c0,0,1.24.78.53,2.69A3.76,3.76,0,0,1,149.74,208.23Z" style="fill:#BA68C8"></path><path d="M149.74,208.23s2.45.57,3.67-1.26-.16-3.41-2.37-3.33c0,0,1.24.78.53,2.69A3.76,3.76,0,0,1,149.74,208.23Z" style="opacity:0.15"></path><path d="M158.36,205.68c-1.18,1.43-2.18.83-2.28-1.37s-.39-4.06-2.09-4.76a21.88,21.88,0,0,0-5.17-.94,10.31,10.31,0,0,0,2.68-1.43c1.18-.92,4.66-.29,6.38,1.91S159.93,203.76,158.36,205.68Z" style="fill:#BA68C8"></path><path d="M158.36,205.68c-1.18,1.43-2.18.83-2.28-1.37s-.39-4.06-2.09-4.76a21.88,21.88,0,0,0-5.17-.94,10.31,10.31,0,0,0,2.68-1.43c1.18-.92,4.66-.29,6.38,1.91S159.93,203.76,158.36,205.68Z" style="opacity:0.15"></path><path d="M150.75,197.76s-1.82-.5-4.17,1.57-1.71,4.64-3.34,5.36-2.5-.72-1.72-3.42,2.57-4,5-4.93S150.74,196.8,150.75,197.76Z" style="fill:#BA68C8"></path><path d="M150.75,197.76s-1.82-.5-4.17,1.57-1.71,4.64-3.34,5.36-2.5-.72-1.72-3.42,2.57-4,5-4.93S150.74,196.8,150.75,197.76Z" style="opacity:0.15"></path><path d="M159.22,204.76a4.68,4.68,0,0,1,1.91,5c-.73,2.59,0,3.14-2.79,4.14s-3.27,1.93-7.58,0a12.29,12.29,0,0,1,1.92-.11c1.87-.06,3.43-2.19,5.38-3.49C160.6,208.61,159.22,204.76,159.22,204.76Z" style="fill:#BA68C8"></path><path d="M159.22,204.76a4.68,4.68,0,0,1,1.91,5c-.73,2.59,0,3.14-2.79,4.14s-3.27,1.93-7.58,0a12.29,12.29,0,0,1,1.92-.11c1.87-.06,3.43-2.19,5.38-3.49C160.6,208.61,159.22,204.76,159.22,204.76Z" style="opacity:0.15"></path><path d="M148.67,214.09c.84-.55-.68,0-2.61-.64s-4.46-2.29-5.15-4.59a7.42,7.42,0,0,1,.3-5.24,3.72,3.72,0,0,0-2.54,1.82c-1.38,1.94-1,5.74,1.6,7.94A6.82,6.82,0,0,0,148.67,214.09Z" style="fill:#BA68C8"></path><path d="M148.67,214.09c.84-.55-.68,0-2.61-.64s-4.46-2.29-5.15-4.59a7.42,7.42,0,0,1,.3-5.24,3.72,3.72,0,0,0-2.54,1.82c-1.38,1.94-1,5.74,1.6,7.94A6.82,6.82,0,0,0,148.67,214.09Z" style="opacity:0.15"></path><path d="M144,195.7a5.93,5.93,0,0,0-3.61,3.29c-1.09,2.6,1.73,4.31.64,4.68s-2.33.13-2.76-1.93.16-4.25,1.89-5.17S142.88,194.83,144,195.7Z" style="fill:#BA68C8"></path><path d="M144,195.7a5.93,5.93,0,0,0-3.61,3.29c-1.09,2.6,1.73,4.31.64,4.68s-2.33.13-2.76-1.93.16-4.25,1.89-5.17S142.88,194.83,144,195.7Z" style="opacity:0.15"></path><path d="M156.35,196.91c-1.24.7-1.51-.2-2.8-1.67s-2.11-1.76-4.38-.86a12.16,12.16,0,0,1-4.08.91,4.21,4.21,0,0,0,2.26-1.6c1-1.33,4-4,7-1.39S156.91,196.6,156.35,196.91Z" style="fill:#BA68C8"></path><path d="M156.35,196.91c-1.24.7-1.51-.2-2.8-1.67s-2.11-1.76-4.38-.86a12.16,12.16,0,0,1-4.08.91,4.21,4.21,0,0,0,2.26-1.6c1-1.33,4-4,7-1.39S156.91,196.6,156.35,196.91Z" style="opacity:0.15"></path><path d="M160.1,204.43a3.86,3.86,0,0,0,3-4.11c-.1-3.5-4.41-5.46-5.36-4.85s-.25,2.57.77,2.88,3.26.77,3.27,2.91A3.8,3.8,0,0,1,160.1,204.43Z" style="fill:#BA68C8"></path><path d="M160.1,204.43a3.86,3.86,0,0,0,3-4.11c-.1-3.5-4.41-5.46-5.36-4.85s-.25,2.57.77,2.88,3.26.77,3.27,2.91A3.8,3.8,0,0,1,160.1,204.43Z" style="opacity:0.15"></path><path d="M133.34,212.94l-1.32-.22a8.27,8.27,0,0,1-2.3,2c-1.33.73-4.64.3-5-1.1l-.86-3.1s-1.35.54-1.84,0-.33-4.35.19-5.14c.39-.61.71-.72.71-.72s-.1-.19.59-.72a7.39,7.39,0,0,0,1.51-3c.34-1,2-1.46,3.2-1s2.73.69,3.22.28,3-.7,3.58.19,1.21,2,.63,2.69a6.56,6.56,0,0,0-.93,2.25,1.9,1.9,0,0,1,2.11.9c.59,1.26.55,4.24-.73,5S133.34,212.94,133.34,212.94Z" style="fill:#BA68C8"></path><path d="M133.34,212.94l-1.32-.22a8.27,8.27,0,0,1-2.3,2c-1.33.73-4.64.3-5-1.1l-.86-3.1s-1.35.54-1.84,0-.33-4.35.19-5.14c.39-.61.71-.72.71-.72s-.1-.19.59-.72a7.39,7.39,0,0,0,1.51-3c.34-1,2-1.46,3.2-1s2.73.69,3.22.28,3-.7,3.58.19,1.21,2,.63,2.69a6.56,6.56,0,0,0-.93,2.25,1.9,1.9,0,0,1,2.11.9c.59,1.26.55,4.24-.73,5S133.34,212.94,133.34,212.94Z" style="opacity:0.5"></path><path d="M132.75,212.15a2.19,2.19,0,0,1-1.4,2.13c-1.51.59-6-2-5-5.71a3.82,3.82,0,0,0,3.13,2.76A9.12,9.12,0,0,1,132.75,212.15Z" style="fill:#BA68C8"></path><path d="M132.75,212.15a2.19,2.19,0,0,1-1.4,2.13c-1.51.59-6-2-5-5.71a3.82,3.82,0,0,0,3.13,2.76A9.12,9.12,0,0,1,132.75,212.15Z" style="opacity:0.2"></path><path d="M134.59,204.58a3.22,3.22,0,0,1,1.65.33c.71.41.11,4.45.11,4.45s.26-1.35-.43-.63-1.1,2.59-3.17,3.42l.75-4.84S133.29,204.82,134.59,204.58Z" style="fill:#BA68C8"></path><path d="M134.59,204.58a3.22,3.22,0,0,1,1.65.33c.71.41.11,4.45.11,4.45s.26-1.35-.43-.63-1.1,2.59-3.17,3.42l.75-4.84S133.29,204.82,134.59,204.58Z" style="opacity:0.2"></path><path d="M134.85,204.68s0,.13.56-.61a2.38,2.38,0,0,0,.14-2.18c-.21-.33-1.35.27-2.2-.14s-2.78-1.33-2.4-2.22a1.71,1.71,0,0,0-.38,2.31C131.46,203.14,134.44,203.93,134.85,204.68Z" style="fill:#BA68C8"></path><path d="M134.85,204.68s0,.13.56-.61a2.38,2.38,0,0,0,.14-2.18c-.21-.33-1.35.27-2.2-.14s-2.78-1.33-2.4-2.22a1.71,1.71,0,0,0-.38,2.31C131.46,203.14,134.44,203.93,134.85,204.68Z" style="opacity:0.2"></path><path d="M130.31,201.32s1,0-.63,1-2.22,1.3-2.22,1.3-.62-.73-1.17-.28a4.68,4.68,0,0,1-2.9.75,2.83,2.83,0,0,0,1.31-1.55c.41-1.13.81-1.7,2.36-1.18A4.51,4.51,0,0,0,130.31,201.32Z" style="fill:#BA68C8"></path><path d="M130.31,201.32s1,0-.63,1-2.22,1.3-2.22,1.3-.62-.73-1.17-.28a4.68,4.68,0,0,1-2.9.75,2.83,2.83,0,0,0,1.31-1.55c.41-1.13.81-1.7,2.36-1.18A4.51,4.51,0,0,0,130.31,201.32Z" style="opacity:0.2"></path><path d="M122.89,204.72s-.26-.95,2.19-.81c.85.05-.53,6-.53,6S120.52,207.64,122.89,204.72Z" style="fill:#BA68C8"></path><path d="M122.89,204.72s-.26-.95,2.19-.81c.85.05-.53,6-.53,6S120.52,207.64,122.89,204.72Z" style="opacity:0.2"></path><path d="M124.67,209.91a2.33,2.33,0,0,0-1.22,1.56c-.42,1.27,2.17,4.22,4,3a5.36,5.36,0,0,1-1.27-4.78Z" style="fill:#BA68C8"></path><path d="M124.67,209.91a2.33,2.33,0,0,0-1.22,1.56c-.42,1.27,2.17,4.22,4,3a5.36,5.36,0,0,1-1.27-4.78Z" style="opacity:0.2"></path><path d="M130.72,210s-1.12.59-1.92-.81l-.89-1.29s.75-1.45,1.55-1.74.57.25.57.25a1,1,0,0,0-.43,1.56C130.36,209,131.92,209.15,130.72,210Z" style="fill:#BA68C8"></path><path d="M126.75,204.7a3.7,3.7,0,0,0-.71,2.57,3.43,3.43,0,0,0,1.31,2.58,2.8,2.8,0,0,1,.31-2.08c.61-1.22,1.93-3.18,1.93-3.18S128.64,202.92,126.75,204.7Z" style="fill:#BA68C8"></path><path d="M129.05,204.15a2.26,2.26,0,0,1,2.42.2c1,.92,1.22,2.59,2,3,0,0-.41,1.16-1.1.73s-2.33-1.68-3.21-.92C129.19,207.12,127.8,205.39,129.05,204.15Z" style="fill:#BA68C8"></path><path d="M132.7,209.9a11,11,0,0,1-1.09.81,2.94,2.94,0,0,1-2.63-.08c-.73-.31-1.46-.65-2.22-.91-.56-.19-.41,0-.78.21s-.49,0-.61-.28a5,5,0,0,1-.14-1.09,15.87,15.87,0,0,1-.43-2.16c0-1.27.74-3.31,2.36-3,.48.1.66.23,1.1,0a3.84,3.84,0,0,1,2.63-.68,3.93,3.93,0,0,1,2.87,1.78,4.29,4.29,0,0,1,.58,1.59,4.69,4.69,0,0,1-.38,2A3.52,3.52,0,0,1,132.7,209.9Z" style="fill:#BA68C8"></path><path d="M132.7,209.9a11,11,0,0,1-1.09.81,2.94,2.94,0,0,1-2.63-.08c-.73-.31-1.46-.65-2.22-.91-.56-.19-.41,0-.78.21s-.49,0-.61-.28a5,5,0,0,1-.14-1.09,15.87,15.87,0,0,1-.43-2.16c0-1.27.74-3.31,2.36-3,.48.1.66.23,1.1,0a3.84,3.84,0,0,1,2.63-.68,3.93,3.93,0,0,1,2.87,1.78,4.29,4.29,0,0,1,.58,1.59,4.69,4.69,0,0,1-.38,2A3.52,3.52,0,0,1,132.7,209.9Z" style="opacity:0.5"></path><path d="M133.5,207.31c.05.39-.66,2.88-2.84,3.08s-4.28-1.82-4.28-1.82.1,2.55,2,3.58,4.26.56,5-.61S134.65,208.17,133.5,207.31Z" style="fill:#BA68C8"></path><path d="M133.5,207.31c.05.39-.66,2.88-2.84,3.08s-4.28-1.82-4.28-1.82.1,2.55,2,3.58,4.26.56,5-.61S134.65,208.17,133.5,207.31Z" style="fill:#fff;opacity:0.2"></path><path d="M128.8,209.17a1.44,1.44,0,0,1,.34-2.17c1.33-1.08,2.91-1.22,2.07-2.06s-2.11-1.34-3.16-.29A2.83,2.83,0,0,0,128.8,209.17Z" style="fill:#BA68C8"></path><path d="M128.8,209.17a1.44,1.44,0,0,1,.34-2.17c1.33-1.08,2.91-1.22,2.07-2.06s-2.11-1.34-3.16-.29A2.83,2.83,0,0,0,128.8,209.17Z" style="fill:#fff;opacity:0.2"></path><path d="M130.72,210a2.49,2.49,0,0,0,1.69-2c.06-1.5-1.32-1.93-2.57-1.1,0,0,1,0,1.27,1.39A2.57,2.57,0,0,1,130.72,210Z" style="fill:#BA68C8"></path><path d="M130.72,210a2.49,2.49,0,0,0,1.69-2c.06-1.5-1.32-1.93-2.57-1.1,0,0,1,0,1.27,1.39A2.57,2.57,0,0,1,130.72,210Z" style="fill:#fff;opacity:0.2"></path><path d="M134.83,205.42c-.17,1.26-1,1.26-1.81,0s-1.68-2.23-2.92-2a15.4,15.4,0,0,0-3.35,1.3,7.37,7.37,0,0,0,1-1.79c.36-1,2.61-1.83,4.4-1.17S135.07,203.74,134.83,205.42Z" style="fill:#BA68C8"></path><path d="M134.83,205.42c-.17,1.26-1,1.26-1.81,0s-1.68-2.23-2.92-2a15.4,15.4,0,0,0-3.35,1.3,7.37,7.37,0,0,0,1-1.79c.36-1,2.61-1.83,4.4-1.17S135.07,203.74,134.83,205.42Z" style="fill:#fff;opacity:0.2"></path><path d="M127.57,203.52s-1.24.35-1.87,2.4.66,3.32,0,4.32-1.72.47-2.23-1.38a5,5,0,0,1,1.17-4.67C125.69,202.78,127.22,203,127.57,203.52Z" style="fill:#BA68C8"></path><path d="M127.57,203.52s-1.24.35-1.87,2.4.66,3.32,0,4.32-1.72.47-2.23-1.38a5,5,0,0,1,1.17-4.67C125.69,202.78,127.22,203,127.57,203.52Z" style="fill:#fff;opacity:0.2"></path><path d="M135,204.58a3.18,3.18,0,0,1,2.89,2.23c.5,1.77,1.1,1.85-.15,3.41s-1.21,2.29-4.41,2.72a7.66,7.66,0,0,1,1.08-.75c1.07-.7,1.22-2.51,1.89-4C137.19,206.33,135,204.58,135,204.58Z" style="fill:#BA68C8"></path><path d="M135,204.58a3.18,3.18,0,0,1,2.89,2.23c.5,1.77,1.1,1.85-.15,3.41s-1.21,2.29-4.41,2.72a7.66,7.66,0,0,1,1.08-.75c1.07-.7,1.22-2.51,1.89-4C137.19,206.33,135,204.58,135,204.58Z" style="fill:#fff;opacity:0.2"></path><path d="M132.18,213.79c.29-.62-.38.27-1.75.55s-3.42.26-4.64-.84a5.06,5.06,0,0,1-1.7-3.16,2.56,2.56,0,0,0-.83,2c-.11,1.62,1.46,3.7,3.77,4.06A4.65,4.65,0,0,0,132.18,213.79Z" style="fill:#BA68C8"></path><path d="M132.18,213.79c.29-.62-.38.27-1.75.55s-3.42.26-4.64-.84a5.06,5.06,0,0,1-1.7-3.16,2.56,2.56,0,0,0-.83,2c-.11,1.62,1.46,3.7,3.77,4.06A4.65,4.65,0,0,0,132.18,213.79Z" style="fill:#fff;opacity:0.2"></path><path d="M122.89,204.72a4.09,4.09,0,0,0-.93,3.21c.3,1.91,2.55,1.89,2.05,2.5s-1.31.91-2.31-.14a3.13,3.13,0,0,1-.73-3.69C121.65,205.45,121.93,204.61,122.89,204.72Z" style="fill:#BA68C8"></path><path d="M122.89,204.72a4.09,4.09,0,0,0-.93,3.21c.3,1.91,2.55,1.89,2.05,2.5s-1.31.91-2.31-.14a3.13,3.13,0,0,1-.73-3.69C121.65,205.45,121.93,204.61,122.89,204.72Z" style="fill:#fff;opacity:0.2"></path><path d="M130.53,201c-.47.85-.95.42-2.23,0s-1.86-.28-2.86,1.06a8.62,8.62,0,0,1-2,2,2.9,2.9,0,0,0,.74-1.75c.09-1.12.88-3.77,3.58-3.3S130.75,200.64,130.53,201Z" style="fill:#BA68C8"></path><path d="M130.53,201c-.47.85-.95.42-2.23,0s-1.86-.28-2.86,1.06a8.62,8.62,0,0,1-2,2,2.9,2.9,0,0,0,.74-1.75c.09-1.12.88-3.77,3.58-3.3S130.75,200.64,130.53,201Z" style="fill:#fff;opacity:0.2"></path><path d="M135.41,204.07a2.65,2.65,0,0,0,.26-3.45c-1.31-2-4.52-1.62-4.86-.92s.77,1.58,1.47,1.4,2.18-.71,2.95.54A2.6,2.6,0,0,1,135.41,204.07Z" style="fill:#BA68C8"></path><path d="M135.41,204.07a2.65,2.65,0,0,0,.26-3.45c-1.31-2-4.52-1.62-4.86-.92s.77,1.58,1.47,1.4,2.18-.71,2.95.54A2.6,2.6,0,0,1,135.41,204.07Z" style="fill:#fff;opacity:0.2"></path><path d="M141.88,222.76l-1.25-.49a8.12,8.12,0,0,1-2.67,1.52c-1.46.44-4.6-.66-4.7-2.1s-.21-3.21-.21-3.21-1.43.25-1.8-.35.56-4.33,1.23-5a1.74,1.74,0,0,1,.85-.55s-.06-.21.72-.59a7.28,7.28,0,0,0,2.08-2.58c.54-.89,2.23-1,3.34-.34s2.53,1.23,3.1.94,3.1-.07,3.47.91.76,2.25.06,2.77a6.52,6.52,0,0,0-1.37,2,1.89,1.89,0,0,1,1.88,1.31c.32,1.35-.33,4.26-1.74,4.76S141.88,222.76,141.88,222.76Z" style="fill:#BA68C8"></path><path d="M141.88,222.76l-1.25-.49a8.12,8.12,0,0,1-2.67,1.52c-1.46.44-4.6-.66-4.7-2.1s-.21-3.21-.21-3.21-1.43.25-1.8-.35.56-4.33,1.23-5a1.74,1.74,0,0,1,.85-.55s-.06-.21.72-.59a7.28,7.28,0,0,0,2.08-2.58c.54-.89,2.23-1,3.34-.34s2.53,1.23,3.1.94,3.1-.07,3.47.91.76,2.25.06,2.77a6.52,6.52,0,0,0-1.37,2,1.89,1.89,0,0,1,1.88,1.31c.32,1.35-.33,4.26-1.74,4.76S141.88,222.76,141.88,222.76Z" style="opacity:0.5"></path><path d="M141.46,221.87a2.2,2.2,0,0,1-1.81,1.8c-1.6.26-5.5-3.22-3.7-6.61a3.85,3.85,0,0,0,2.5,3.35A9.09,9.09,0,0,1,141.46,221.87Z" style="fill:#BA68C8"></path><path d="M141.46,221.87a2.2,2.2,0,0,1-1.81,1.8c-1.6.26-5.5-3.22-3.7-6.61a3.85,3.85,0,0,0,2.5,3.35A9.09,9.09,0,0,1,141.46,221.87Z" style="opacity:0.30000000000000004"></path><path d="M144.81,214.83a3.23,3.23,0,0,1,1.54.67c.62.55-.8,4.37-.8,4.37s.53-1.26-.29-.7-1.61,2.31-3.8,2.7l1.72-4.59S143.49,214.81,144.81,214.83Z" style="fill:#BA68C8"></path><path d="M144.81,214.83a3.23,3.23,0,0,1,1.54.67c.62.55-.8,4.37-.8,4.37s.53-1.26-.29-.7-1.61,2.31-3.8,2.7l1.72-4.59S143.49,214.81,144.81,214.83Z" style="opacity:0.30000000000000004"></path><path d="M145,215s0,.13.67-.48a2.35,2.35,0,0,0,.58-2.11c-.13-.37-1.37,0-2.12-.59s-2.44-1.87-1.89-2.66a1.71,1.71,0,0,0-.85,2.18C142,212.79,144.79,214.17,145,215Z" style="fill:#BA68C8"></path><path d="M145,215s0,.13.67-.48a2.35,2.35,0,0,0,.58-2.11c-.13-.37-1.37,0-2.12-.59s-2.44-1.87-1.89-2.66a1.71,1.71,0,0,0-.85,2.18C142,212.79,144.79,214.17,145,215Z" style="opacity:0.30000000000000004"></path><path d="M141.29,210.77s1,.24-.83.86-2.44.82-2.44.82-.46-.84-1.09-.52a4.63,4.63,0,0,1-3,.14,2.84,2.84,0,0,0,1.6-1.25c.63-1,1.14-1.49,2.55-.67A4.57,4.57,0,0,0,141.29,210.77Z" style="fill:#BA68C8"></path><path d="M141.29,210.77s1,.24-.83.86-2.44.82-2.44.82-.46-.84-1.09-.52a4.63,4.63,0,0,1-3,.14,2.84,2.84,0,0,0,1.6-1.25c.63-1,1.14-1.49,2.55-.67A4.57,4.57,0,0,0,141.29,210.77Z" style="opacity:0.30000000000000004"></path><path d="M133.33,212.58s-.06-1,2.3-.35c.83.22-1.73,5.72-1.73,5.72S130.41,215,133.33,212.58Z" style="fill:#BA68C8"></path><path d="M133.33,212.58s-.06-1,2.3-.35c.83.22-1.73,5.72-1.73,5.72S130.41,215,133.33,212.58Z" style="opacity:0.30000000000000004"></path><path d="M134,218a2.36,2.36,0,0,0-1.51,1.28c-.68,1.16,1.25,4.57,3.35,3.72a5.36,5.36,0,0,1-.28-4.93Z" style="fill:#BA68C8"></path><path d="M134,218a2.36,2.36,0,0,0-1.51,1.28c-.68,1.16,1.25,4.57,3.35,3.72a5.36,5.36,0,0,1-.28-4.93Z" style="opacity:0.30000000000000004"></path><path d="M139.91,219.33s-1.21.35-1.71-1.19l-.61-1.44s1-1.27,1.87-1.38.51.35.51.35-1.27.3-.74,1.44S141.26,218.76,139.91,219.33Z" style="fill:#BA68C8"></path><path d="M137.1,213.35a3.69,3.69,0,0,0-1.21,2.37,3.42,3.42,0,0,0,.75,2.79,2.84,2.84,0,0,1,.73-2c.85-1.07,2.54-2.72,2.54-2.72S139.32,212,137.1,213.35Z" style="fill:#BA68C8"></path><path d="M139.47,213.28a2.27,2.27,0,0,1,2.33.69c.83,1.12.66,2.79,1.38,3.31,0,0-.63,1.05-1.22.49s-1.94-2.12-3-1.56C139,216.21,138,214.24,139.47,213.28Z" style="fill:#BA68C8"></path><path d="M141.87,219.65a10.64,10.64,0,0,1-1.23.58,3,3,0,0,1-2.56-.62c-.66-.46-1.3-.94-2-1.34-.51-.3-.39-.12-.81,0s-.48-.05-.53-.4a5,5,0,0,1,.08-1.09,14.83,14.83,0,0,1,0-2.21c.26-1.24,1.4-3.09,2.91-2.43.45.2.6.36,1.09.2a3.78,3.78,0,0,1,2.71-.13,3.93,3.93,0,0,1,2.44,2.32,4.18,4.18,0,0,1,.24,1.68,4.54,4.54,0,0,1-.78,1.9A3.52,3.52,0,0,1,141.87,219.65Z" style="fill:#BA68C8"></path><path d="M141.87,219.65a10.64,10.64,0,0,1-1.23.58,3,3,0,0,1-2.56-.62c-.66-.46-1.3-.94-2-1.34-.51-.3-.39-.12-.81,0s-.48-.05-.53-.4a5,5,0,0,1,.08-1.09,14.83,14.83,0,0,1,0-2.21c.26-1.24,1.4-3.09,2.91-2.43.45.2.6.36,1.09.2a3.78,3.78,0,0,1,2.71-.13,3.93,3.93,0,0,1,2.44,2.32,4.18,4.18,0,0,1,.24,1.68,4.54,4.54,0,0,1-.78,1.9A3.52,3.52,0,0,1,141.87,219.65Z" style="opacity:0.5"></path><path d="M143.18,217.28c0,.39-1.24,2.68-3.41,2.44s-3.82-2.66-3.82-2.66-.42,2.52,1.23,3.91,4.06,1.42,5,.43S144.13,218.36,143.18,217.28Z" style="fill:#BA68C8"></path><path d="M138.2,218.14a1.43,1.43,0,0,1,.78-2c1.52-.78,3.1-.6,2.45-1.59s-1.8-1.75-3-.94A2.83,2.83,0,0,0,138.2,218.14Z" style="fill:#BA68C8"></path><path d="M139.91,219.33a2.49,2.49,0,0,0,2.07-1.65c.37-1.46-.89-2.16-2.29-1.6,0,0,1,.21,1,1.61A2.58,2.58,0,0,1,139.91,219.33Z" style="fill:#BA68C8"></path><path d="M144.87,215.71c-.43,1.19-1.21,1-1.78-.36s-1.19-2.52-2.44-2.59a15.34,15.34,0,0,0-3.55.59,7.07,7.07,0,0,0,1.4-1.54c.55-.87,2.93-1.26,4.55-.24S145.45,214.11,144.87,215.71Z" style="fill:#BA68C8"></path><path d="M138.15,212.36s-1.29.09-2.32,2,0,3.39-.92,4.23-1.78.11-1.9-1.81a5,5,0,0,1,2.1-4.33C136.46,211.25,137.92,211.74,138.15,212.36Z" style="fill:#BA68C8"></path><path d="M145.22,214.92a3.17,3.17,0,0,1,2.37,2.78c.13,1.83.7,2-.84,3.3s-1.66,2-4.87,1.76a7.92,7.92,0,0,1,1.2-.51c1.19-.47,1.71-2.21,2.67-3.49C147,217.08,145.22,214.92,145.22,214.92Z" style="fill:#BA68C8"></path><path d="M140.56,223.36c.42-.55-.42.19-1.82.18s-3.4-.44-4.37-1.77a5.07,5.07,0,0,1-1-3.44,2.53,2.53,0,0,0-1.21,1.76c-.45,1.56.67,3.92,2.85,4.74A4.66,4.66,0,0,0,140.56,223.36Z" style="fill:#BA68C8"></path><path d="M133.33,212.58a4.05,4.05,0,0,0-1.57,2.95c-.1,1.93,2.11,2.38,1.49,2.87s-1.47.62-2.23-.61a3.14,3.14,0,0,1,0-3.76C132,213,132.41,212.28,133.33,212.58Z" style="fill:#BA68C8"></path><path d="M141.56,210.52c-.64.74-1,.22-2.18-.43s-1.77-.65-3,.45a8.33,8.33,0,0,1-2.41,1.53,2.9,2.9,0,0,0,1.08-1.55c.32-1.08,1.64-3.52,4.18-2.5S141.85,210.19,141.56,210.52Z" style="fill:#BA68C8"></path><path d="M145.71,214.51a2.65,2.65,0,0,0,1-3.33c-.87-2.24-4.09-2.51-4.57-1.9s.43,1.71,1.16,1.68,2.28-.25,2.78,1.13A2.64,2.64,0,0,1,145.71,214.51Z" style="fill:#BA68C8"></path></g></g></g></svg>